<svg width="40" height="41" viewBox="0 0 40 41" fill="none" xmlns="http://www.w3.org/2000/svg">
<path d="M34.7233 22.4711C34.9317 22.1754 35.1238 21.9314 35.2846 21.6691C35.7826 20.8597 36.5012 20.2093 37.356 19.7942C37.6928 19.6247 38.0134 19.4229 38.3426 19.2372C38.566 19.1109 38.8013 19.0526 39.0269 19.2156C39.2525 19.3786 39.2806 19.6042 39.2277 19.8633C39.1198 20.3911 39.0356 20.9243 38.9341 21.4532C38.8159 22.078 38.5644 22.67 38.1969 23.1889C37.1088 24.7325 36.038 26.2857 34.9435 27.8304C34.7498 28.0885 34.6473 28.4036 34.6521 28.7263C34.665 30.6152 34.6596 32.5042 34.6575 34.3921C34.6575 35.8407 33.8522 36.6394 32.3907 36.6448C32 36.6448 31.6082 36.6535 31.2174 36.6448C30.8267 36.6362 30.5806 36.4225 30.5752 36.1137C30.5698 35.805 30.8191 35.574 31.239 35.5676C31.7118 35.5579 32.1835 35.5676 32.6552 35.56C33.1798 35.5449 33.5522 35.2178 33.5565 34.7138C33.5727 33.1367 33.563 31.5597 33.563 29.9201C33.3417 30.0701 33.2499 30.2623 33.1312 30.4274C31.1746 33.2217 29.2187 36.0177 27.2635 38.8155C26.8318 39.4264 26.2046 39.679 25.543 39.5182C24.8165 39.3466 24.4161 38.8706 24.2811 38.1517C24.1732 37.6033 24.4571 37.164 24.7474 36.7074C24.578 36.6168 24.4161 36.6513 24.2628 36.6513H12.7293C12.5543 36.6588 12.379 36.6494 12.2058 36.6232C11.9057 36.5639 11.7168 36.3696 11.7395 36.0565C11.76 35.7608 11.9651 35.6064 12.2533 35.5773C12.4013 35.5665 12.5497 35.5632 12.698 35.5676C16.8127 35.5676 20.9263 35.5622 25.041 35.5762C25.2058 35.5882 25.3707 35.5542 25.5173 35.478C25.6638 35.4017 25.7863 35.2862 25.8711 35.1444C28.3818 31.5349 30.9004 27.9304 33.427 24.3309C33.5258 24.2044 33.58 24.0489 33.5813 23.8884C33.5734 19.973 33.5694 16.0591 33.5694 12.1466C33.5651 12.0124 33.58 11.8782 33.6137 11.7483C33.6411 11.635 33.7079 11.5351 33.8023 11.4667C33.8967 11.3982 34.0124 11.3656 34.1286 11.3748C34.2385 11.3722 34.3459 11.4077 34.4325 11.4755C34.5191 11.5432 34.5796 11.6388 34.6035 11.7461C34.6405 11.917 34.6564 12.0917 34.651 12.2664C34.651 15.5046 34.651 18.7428 34.651 21.9811C34.6596 22.1279 34.6251 22.2725 34.7233 22.4711ZM25.924 38.4744C26.1939 38.4852 26.3385 38.292 26.481 38.088C30.0891 32.9263 33.699 27.766 37.3107 22.6071C37.6185 22.1622 37.8252 21.6552 37.9162 21.1219C37.9346 21.0139 37.9885 20.8855 37.9033 20.8131C37.7856 20.7149 37.6798 20.8455 37.5794 20.8963C37.0397 21.1715 36.6328 21.5925 36.2842 22.0836C32.9963 26.7956 29.7052 31.5043 26.4108 36.2098C26.0949 36.6632 25.7801 37.1176 25.4663 37.5731C25.3954 37.6647 25.354 37.7757 25.3476 37.8914C25.3413 38.0071 25.3702 38.1219 25.4307 38.2208C25.479 38.3067 25.5515 38.3766 25.6392 38.4217C25.7269 38.4668 25.826 38.4851 25.924 38.4744Z" fill="#5940F3"/>
<path d="M16.9606 28.1509C16.9606 27.6112 16.9466 27.0715 16.9606 26.5318C16.9736 26.1519 16.8235 25.9133 16.503 25.7072C14.4823 24.4119 13.2777 22.565 12.9074 20.1925C12.276 16.1479 14.9411 12.2599 18.9521 11.3554C23.531 10.3213 28.0094 13.4656 28.5114 18.134C28.8535 21.3151 27.6036 23.8117 25.0011 25.6413C24.7324 25.8302 24.4841 25.9911 24.4139 26.3602C24.36 26.6441 24.1009 26.7628 23.8116 26.7002C23.4954 26.6311 23.3723 26.3904 23.4014 26.0925C23.4554 25.5237 23.7868 25.1437 24.265 24.848C25.6753 23.9919 26.7217 22.6473 27.2053 21.07C28.5081 16.992 25.6714 12.7251 21.4078 12.2707C17.8835 11.8951 14.4877 14.4295 13.9782 18.011C13.5734 20.8542 14.6205 23.1533 17.02 24.7627C17.6968 25.216 18.081 25.7342 17.9915 26.5567C17.9898 26.5836 17.9898 26.6107 17.9915 26.6376C17.9915 27.3684 18.243 27.553 18.9629 27.3716C19.1367 27.3284 19.1659 27.2151 19.1659 27.0726C19.1659 26.6409 19.1723 26.2091 19.1497 25.7773C19.1292 25.3974 18.8949 25.1383 18.5992 24.9235C17.9425 24.4472 17.3645 23.871 16.8861 23.2159C16.6152 22.8424 16.6325 22.5305 16.9174 22.3319C17.2024 22.1333 17.4572 22.2099 17.7335 22.5801C18.1524 23.1442 18.6542 23.6417 19.222 24.0557C19.915 24.5608 20.2658 25.2365 20.2507 26.099C20.2507 26.4088 20.2615 26.7197 20.2507 27.0294C20.2377 27.2982 20.3586 27.3759 20.6112 27.3803C21.2588 27.3921 21.2588 27.4018 21.2588 26.7477C21.2588 26.4379 21.248 26.1271 21.2653 25.8173C21.3042 25.0962 21.6474 24.536 22.2141 24.1064C22.8039 23.6772 23.326 23.162 23.763 22.578C24.0707 22.1661 24.2818 21.6903 24.3806 21.1858C24.4795 20.6813 24.4636 20.1611 24.3341 19.6636C24.0286 18.3683 22.9308 17.8545 21.7251 18.4222C21.3484 18.5993 21.0602 18.5453 20.9123 18.2701C20.7645 17.9948 20.8778 17.6926 21.2448 17.4713C22.7387 16.5743 24.7151 17.3515 25.2742 19.0774C25.8431 20.8326 25.4005 22.3718 24.2088 23.7297C23.8386 24.16 23.4183 24.5445 22.9567 24.8749C22.525 25.1804 22.3091 25.5766 22.3307 26.1109C22.3436 26.4207 22.3382 26.7315 22.3307 27.0424C22.3307 27.2788 22.4267 27.3856 22.6696 27.3813C23.0744 27.3738 23.4792 27.3813 23.8839 27.3813C24.2196 27.3813 24.4452 27.5562 24.4496 27.8865C24.4582 28.6421 24.5402 29.3977 24.3934 30.1468C24.0782 31.7551 22.7657 32.8345 21.1217 32.8539C20.3111 32.8647 19.5026 32.8939 18.7546 32.4826C17.6255 31.8576 16.9919 30.9239 16.9649 29.6146C16.9552 29.13 16.9649 28.6432 16.9649 28.1574L16.9606 28.1509ZM20.69 28.4035H19.0709C17.9235 28.4035 17.9235 28.4035 17.9915 29.5585C18.0703 30.8646 18.9996 31.7508 20.3035 31.7616C20.6403 31.7616 20.9771 31.7691 21.3139 31.7551C22.2853 31.7152 23.191 30.938 23.341 29.9751C23.3971 29.6189 23.3518 29.2487 23.3788 28.8871C23.4058 28.5255 23.2946 28.3809 22.9071 28.396C22.172 28.424 21.4304 28.4035 20.69 28.4035Z" fill="#5940F3"/>
<path d="M39.9995 9.203C39.9995 9.40053 39.9995 9.49443 39.9995 9.58942C40.006 10.6494 39.9649 10.6937 38.9255 10.821C37.9227 10.9441 36.921 11.0736 35.9193 11.201C35.4876 11.2571 35.2285 11.093 35.1929 10.6613C35.1637 10.3051 34.9932 10.2295 34.6866 10.2781C33.9311 10.3936 33.169 10.5112 32.408 10.6149C32.1025 10.6559 31.9838 10.7854 31.9762 11.1103C31.9603 11.619 31.9127 12.1262 31.8338 12.629C31.78 13.0405 31.5967 13.4243 31.3105 13.7248C31.0244 14.0254 30.65 14.2272 30.2416 14.301C29.8995 14.3723 29.5541 14.4349 29.2097 14.4975C28.7542 14.5795 28.5016 14.4327 28.411 13.9858C28.1724 12.7909 27.7115 11.6716 27.201 10.5695C26.8908 9.88704 26.3266 9.35258 25.6283 9.07994C24.2021 8.50621 22.7359 8.03722 21.2415 7.67671C20.6954 7.53963 20.2237 7.31403 19.9646 6.78188C19.859 6.57655 19.8062 6.34817 19.8109 6.11734C19.8157 5.8865 19.8777 5.66047 19.9916 5.45961C20.0995 5.26424 20.0564 5.16277 19.8966 5.02029C19.2166 4.41258 19.1831 3.63973 19.7995 2.95862C20.2787 2.42863 20.7806 1.91915 21.2577 1.38701C21.7748 0.805205 22.4192 0.647611 23.1618 0.781458C23.2286 0.790241 23.2946 0.803951 23.3593 0.822475C23.9692 1.03836 24.4571 0.957401 24.9212 0.423095C25.3152 -0.0302564 25.9229 -0.0604798 26.5069 0.0614932C28.1646 0.397672 29.7354 1.07154 31.1214 2.04113C31.5801 2.36495 32.041 2.51822 32.5926 2.4513C33.087 2.38978 33.5835 2.352 34.08 2.30882C34.2689 2.29263 34.3747 2.22031 34.3758 2.00982C34.3758 1.66873 34.583 1.49818 34.9068 1.46148C35.8143 1.35786 36.7242 1.25604 37.6367 1.15601C37.9184 1.12471 38.199 1.08693 38.4818 1.07398C39.0107 1.05023 39.1554 1.16249 39.272 1.67089C39.4977 2.71166 39.656 3.76591 39.7458 4.82708C39.8926 6.31558 39.938 7.81056 39.9995 9.203ZM21.1671 3.36772C20.8605 3.35692 20.4363 3.71529 20.4417 3.93441C20.4493 4.25067 20.7223 4.25823 20.9382 4.30356C22.341 4.58075 23.7219 4.95881 25.0702 5.43478C25.2109 5.47917 25.3463 5.5389 25.4739 5.61289C25.7006 5.75861 25.8085 5.97017 25.6963 6.23678C25.6554 6.35307 25.5732 6.45029 25.4653 6.50998C25.3575 6.56968 25.2315 6.58769 25.1112 6.56061C25.0055 6.53988 24.9021 6.50879 24.8025 6.46778C23.7506 6.09284 22.6772 5.78106 21.588 5.53409C21.3829 5.48444 21.234 5.49523 21.0969 5.68305C20.7558 6.15151 20.8605 6.4667 21.4477 6.62105C23.0539 7.03986 24.646 7.49753 26.1723 8.16245C27.0277 8.51958 27.7201 9.18157 28.1152 10.0201C28.5961 10.987 28.9888 11.9953 29.2885 13.0327C29.3252 13.1666 29.322 13.336 29.5282 13.3566C29.6832 13.3743 29.8403 13.3605 29.9899 13.316C30.1395 13.2715 30.2786 13.1972 30.3988 13.0976C30.519 12.9979 30.6178 12.8751 30.6893 12.7363C30.7607 12.5976 30.8035 12.4458 30.8148 12.2901C30.8612 11.6716 30.885 11.052 30.9314 10.4346C30.9767 9.84632 31.1106 9.72867 31.6934 9.64447C32.6941 9.50091 33.6914 9.339 34.692 9.19544C34.9371 9.1609 35.0461 9.07131 35.0159 8.80469C34.8475 7.13161 34.687 5.45601 34.5344 3.77789C34.5064 3.4681 34.3715 3.34613 34.0649 3.38391C33.6504 3.4314 33.2305 3.44004 32.8182 3.50372C32.4331 3.57292 32.0378 3.56175 31.6572 3.47092C31.2766 3.38008 30.9189 3.21155 30.6065 2.97589C29.3629 2.08572 27.9494 1.46109 26.454 1.1409C26.2446 1.09341 26.032 1.03296 25.8161 1.11607C25.7297 1.14954 25.6077 1.16357 25.6056 1.27367C25.6034 1.38377 25.7351 1.39024 25.8215 1.41939C26.5126 1.65087 27.1796 1.94911 27.813 2.3099C28.1832 2.52578 28.2955 2.81614 28.126 3.10434C27.9565 3.39254 27.6716 3.4368 27.3089 3.23819C25.9337 2.47289 24.4387 2.08862 22.9028 1.82201C22.7515 1.78827 22.5939 1.79505 22.4461 1.84168C22.2983 1.8883 22.1654 1.97311 22.0608 2.08754C21.9885 2.16094 21.8579 2.22355 21.8859 2.34012C21.914 2.4567 22.0608 2.43619 22.1612 2.45778C23.5515 2.7449 24.9158 3.11298 26.1885 3.76494C26.7206 4.03695 26.8901 4.32191 26.7131 4.64358C26.536 4.96524 26.2554 4.98035 25.7243 4.7159C24.2596 3.98622 22.6901 3.61274 21.1671 3.36772ZM38.906 8.52729C38.8607 7.7091 38.8229 6.60486 38.7301 5.50494C38.6427 4.5011 38.5347 3.49725 38.3534 2.50311C38.307 2.25593 38.2109 2.15986 37.9475 2.19224C37.2535 2.2786 36.5583 2.35523 35.861 2.40812C35.5372 2.43403 35.466 2.57327 35.4984 2.87983C35.6387 4.19131 35.7563 5.50387 35.8805 6.81642C35.9679 7.7404 36.0467 8.66545 36.1395 9.58942C36.187 10.0579 36.2475 10.0881 36.7008 10.0212C37.1391 9.9575 37.5816 9.91325 38.0199 9.84632C38.9147 9.70708 38.9136 9.70276 38.906 8.52729Z" fill="#5940F3"/>
<path d="M11.9738 32.3661C11.5301 32.3661 11.0854 32.3769 10.6407 32.3661C10.3773 32.3563 10.2575 32.4578 10.1938 32.7136C9.99953 33.4994 9.78689 34.2799 9.571 35.0592C9.50408 35.301 9.54618 35.4229 9.81711 35.4909C10.3816 35.6237 10.4917 35.8277 10.3568 36.3987C10.1042 37.4468 9.84517 38.4939 9.59151 39.542C9.43932 40.168 9.26769 40.2976 8.62652 40.2123C7.02252 40.0029 5.42392 39.7665 3.83827 39.4416C2.72482 39.225 1.62656 38.9366 0.550397 38.5781C0.0204076 38.3946 -0.0745803 38.2229 0.0473928 37.6638C0.288101 36.5574 0.539603 35.4521 0.772755 34.3457C0.855869 33.9593 1.02426 33.6883 1.47977 33.7509C1.65787 33.7747 1.71832 33.6689 1.74746 33.52C1.87699 32.8594 2.01731 32.1998 2.13497 31.536C2.18138 31.2748 2.07128 31.0308 1.94391 30.8052C1.04528 29.2145 0.493143 27.4518 0.323721 25.6327C0.28454 25.3143 0.334416 24.9913 0.467805 24.6996C0.601194 24.4078 0.81287 24.1588 1.07931 23.9801C1.42472 23.7308 1.56612 23.4707 1.47329 23.027C1.40776 22.641 1.40048 22.2473 1.4517 21.8591C1.47664 21.6365 1.54863 21.4218 1.66289 21.2292C1.77716 21.0366 1.93108 20.8705 2.11446 20.7419C2.66388 20.3274 3.21114 19.9097 3.77027 19.5082C4.53881 18.9577 5.25769 19.0257 5.8967 19.724C6.06833 19.9108 6.19678 19.9173 6.4159 19.819C7.41219 19.3732 8.29299 19.8935 8.44086 20.9826C8.66322 22.6266 8.95035 24.2586 9.41233 25.854C9.59881 26.5518 10.0478 27.1505 10.6655 27.5249C11.7028 28.1629 12.765 28.7425 13.9286 29.1214C14.4197 29.2811 14.533 29.5143 14.3895 30.0194C14.3128 30.2925 14.2254 30.5591 14.1423 30.8322C13.8163 31.876 13.0607 32.4308 11.9738 32.3661ZM1.67514 24.889C1.35132 25.1286 1.37075 25.4406 1.40637 25.7461C1.54993 26.9582 1.79172 28.1639 2.36488 29.239C3.48423 31.3406 3.27158 31.2262 2.83011 33.5189C2.75563 33.9075 2.83766 34.0359 3.21977 34.1115C4.82017 34.4223 6.41626 34.7537 8.00802 35.1056C8.33184 35.1768 8.47217 35.1056 8.54773 34.7818C8.78304 33.8265 9.03886 32.8766 9.28928 31.9246C9.44579 31.3342 9.55805 31.2435 10.1593 31.2629C10.7389 31.2813 11.3164 31.3288 11.896 31.3374C12.6646 31.3493 12.9236 31.1388 13.1568 30.4113C13.241 30.15 13.228 29.9978 12.929 29.8899C12.1529 29.6114 11.447 29.1829 10.7152 28.8105C9.3929 28.1369 8.57039 27.1061 8.23254 25.6521C7.88872 24.2402 7.61637 22.8117 7.41651 21.3723C7.32368 20.661 7.14989 20.5768 6.54003 20.9405C6.46637 20.9738 6.40551 21.0301 6.36658 21.101C6.32765 21.1718 6.31276 21.2534 6.32415 21.3334C6.36624 21.681 6.40618 22.0286 6.45152 22.3761C6.55946 23.2181 6.73108 24.0492 6.9243 24.8761C7.01281 25.2549 6.86601 25.5453 6.55082 25.6068C6.18382 25.677 6.01112 25.4535 5.90318 25.1427C5.88591 25.0909 5.88159 25.0347 5.86756 24.984C5.50056 23.5991 5.32785 22.1775 5.16918 20.7624C5.13464 20.4624 5.04613 20.2044 4.69532 20.2389C4.34451 20.2735 4.18368 20.4947 4.22038 20.8585C4.26895 21.354 4.28838 21.8537 4.34775 22.347C4.46739 23.4879 4.73256 24.6088 5.1368 25.6824C5.27172 26.0245 5.14759 26.33 4.85939 26.4196C4.53557 26.5275 4.30566 26.3905 4.17289 26.0893C4.08653 25.8918 4.00666 25.691 3.93866 25.487C3.53985 24.2693 3.29367 23.0068 3.20574 21.7285C3.1971 21.613 3.24244 21.4587 3.0978 21.4047C2.95316 21.3507 2.88192 21.4878 2.78585 21.558C2.51816 21.7566 2.47174 22.0351 2.48901 22.3492C2.57644 23.9197 2.80528 25.4579 3.43026 26.9172C3.57382 27.2529 3.45508 27.5562 3.1658 27.6609C2.81823 27.7861 2.59048 27.6264 2.45663 27.3134C2.34418 27.0559 2.24475 26.7929 2.15871 26.5254C1.98709 25.9911 1.83489 25.4525 1.67514 24.889ZM8.36747 39.0865C8.56931 39.1555 8.61897 39.0087 8.66106 38.8339C8.82405 38.1538 8.98489 37.4727 9.16407 36.796C9.22991 36.5423 9.15543 36.4192 8.90177 36.3642C6.62206 35.8957 4.34307 35.4226 2.06481 34.9448C1.79279 34.8876 1.71184 34.9825 1.66327 35.2254C1.5305 35.8849 1.40637 36.5477 1.22503 37.1953C1.11709 37.5904 1.26065 37.7091 1.60606 37.8041C3.81884 38.4161 6.0748 38.7864 8.36962 39.0865H8.36747Z" fill="#5940F3"/>
<path d="M7.10241 13.9243C7.10241 12.683 7.11104 11.4417 7.09593 10.2015C7.08721 10.0276 7.11638 9.85402 7.18143 9.69262C7.24648 9.53121 7.34584 9.38587 7.47264 9.26668C9.28605 7.47415 11.0912 5.67514 12.888 3.86965C13.0018 3.74703 13.1408 3.65061 13.2955 3.58706C13.4502 3.5235 13.6169 3.49433 13.7839 3.50157C14.9842 3.51776 16.1845 3.50157 17.3848 3.50913C17.8803 3.50913 18.1404 3.69802 18.1404 4.04235C18.1404 4.38668 17.8598 4.58206 17.374 4.58206C16.4166 4.58961 15.4581 4.59825 14.5007 4.58206C14.1293 4.5745 14.0106 4.69863 14.0171 5.07103C14.0387 6.17634 14.0268 7.28273 14.0246 8.38913C14.0246 9.64232 13.2842 10.3947 12.0105 10.413C10.9052 10.4292 9.79877 10.4303 8.69237 10.413C8.30811 10.4065 8.17966 10.5264 8.18182 10.9193C8.19801 13.131 8.18937 15.3448 8.18937 17.5555C8.18937 17.6494 8.18937 17.7444 8.18937 17.8383C8.17642 18.3002 7.9832 18.5442 7.63887 18.5377C7.29454 18.5312 7.10888 18.2884 7.1078 17.8199C7.09917 16.5084 7.10241 15.2131 7.10241 13.9243ZM9.11011 9.32497C10.0416 9.32497 11.0476 9.32497 12.0526 9.32497C12.6614 9.32497 12.9334 9.04541 12.9388 8.43122C12.9463 7.54287 12.9388 6.65452 12.9388 5.76617C12.9388 5.67118 12.9873 5.55029 12.7995 5.47257L9.11011 9.32497Z" fill="#5940F3"/>
<path d="M18.2635 20.7905C18.2279 20.2821 18.3822 19.8276 18.6078 19.3872C18.6596 19.2869 18.7935 19.1832 18.6888 19.0634C18.6024 18.9641 18.4599 19.0073 18.3412 19.0213C17.5856 19.1142 17.17 19.5513 17.0999 20.3263C17.0945 20.5278 17.0786 20.7288 17.0524 20.9286C16.9952 21.2125 16.8128 21.3788 16.5127 21.3604C16.2288 21.3453 16.0744 21.1726 16.0205 20.9081C15.8143 19.9032 16.4997 18.5529 17.4086 18.1675C18.543 17.685 19.7693 17.9959 20.446 18.949C20.7332 19.3344 20.9296 19.7797 21.0205 20.2517C21.1113 20.7237 21.0943 21.2101 20.9706 21.6745C20.8076 22.3286 20.3845 22.701 19.8038 22.7302C19.1464 22.7636 18.6985 22.4603 18.4481 21.8051C18.3114 21.485 18.2484 21.1382 18.2635 20.7905ZM19.9819 20.8909C19.9996 20.5673 19.9373 20.2444 19.8006 19.9507C19.7455 19.8309 19.684 19.7229 19.5501 19.8967C19.2922 20.2313 19.2468 21.1812 19.4865 21.5158C19.6376 21.7317 19.7865 21.7317 19.9042 21.4824C19.9927 21.2967 19.9689 21.0905 19.9819 20.8909Z" fill="#5940F3"/>
<path d="M38.2239 8.36861C38.1861 8.67192 38.0339 8.87377 37.7155 8.88241C37.3971 8.89104 37.2125 8.71834 37.1844 8.40315C37.1774 8.33296 37.1857 8.26208 37.2088 8.19543C37.2319 8.12879 37.2693 8.06798 37.3183 8.01723C37.3673 7.96648 37.4268 7.92702 37.4925 7.90158C37.5583 7.87614 37.6289 7.86534 37.6993 7.86992C38.0188 7.87964 38.1775 8.06422 38.2239 8.36861Z" fill="#5940F3"/>
<path d="M7.35929 38.2736C7.05598 38.2283 6.86924 38.0642 6.85952 37.748C6.85845 37.6773 6.87229 37.6071 6.90015 37.5421C6.92801 37.4771 6.96926 37.4188 7.0212 37.3708C7.07315 37.3228 7.13463 37.2863 7.20162 37.2637C7.26862 37.2411 7.33963 37.2329 7.41002 37.2396C7.73384 37.2687 7.90115 37.4608 7.88712 37.7793C7.87309 38.0977 7.67232 38.2477 7.35929 38.2736Z" fill="#5940F3"/>
</svg>
