<svg width="50" height="50" viewBox="0 0 50 50" fill="none" xmlns="http://www.w3.org/2000/svg">
<path fill-rule="evenodd" clip-rule="evenodd" d="M38.3396 11.7354C34.8083 8.2 30.1125 6.25208 25.1104 6.25C14.8021 6.25 6.41042 14.6396 6.40625 24.9521C6.40625 28.2479 7.26667 31.4646 8.90208 34.3021L6.25 43.9917L16.1646 41.3896C18.8979 42.8792 21.9729 43.6646 25.1021 43.6667H25.1104C35.4167 43.6667 43.8083 35.2771 43.8125 24.9646C43.8125 19.9687 41.8708 15.2708 38.3396 11.7354ZM25.1104 40.5104H25.1042C22.3146 40.5083 19.5792 39.7604 17.1917 38.3417L16.625 38.0042L10.7417 39.5479L12.3104 33.8125L11.9417 33.225C10.3854 30.75 9.56458 27.8896 9.56458 24.9521C9.56875 16.3813 16.5417 9.40833 25.1167 9.40833C29.2687 9.41042 33.1708 11.0292 36.1062 13.9667C39.0396 16.9062 40.6562 20.8104 40.6542 24.9646C40.65 33.5354 33.6771 40.5104 25.1104 40.5104ZM33.6375 28.8667C33.1687 28.6312 30.8729 27.5021 30.4437 27.3458C30.0167 27.1896 29.7062 27.1125 29.3937 27.5792C29.0812 28.0458 28.1854 29.0979 27.9125 29.4104C27.6396 29.7229 27.3667 29.7604 26.9 29.5271C26.4333 29.2937 24.9271 28.8 23.1417 27.2083C21.7521 25.9688 20.8146 24.4396 20.5417 23.9708C20.2687 23.5021 20.5125 23.25 20.7479 23.0167C20.9583 22.8083 21.2146 22.4708 21.4479 22.1979C21.6812 21.925 21.7583 21.7312 21.9146 21.4187C22.0708 21.1062 21.9937 20.8333 21.875 20.6C21.7583 20.3646 20.8229 18.0646 20.4333 17.1292C20.0562 16.2229 19.6708 16.3438 19.3833 16.3313C19.1125 16.3188 18.8 16.3146 18.4896 16.3146C18.1771 16.3146 17.6708 16.4312 17.2417 16.8979C16.8125 17.3667 15.6063 18.4958 15.6063 20.7958C15.6063 23.0958 17.2812 25.3188 17.5146 25.6313C17.7479 25.9438 20.8104 30.6625 25.4979 32.6875C26.6146 33.1687 27.4854 33.4562 28.1625 33.6729C29.2812 34.0292 30.3 33.9771 31.1062 33.8583C32.0042 33.725 33.8708 32.7292 34.2604 31.6375C34.65 30.5458 34.65 29.6104 34.5333 29.4146C34.4167 29.2188 34.1021 29.1 33.6375 28.8667Z" fill="#9685FF"/>
</svg>
