<svg width="70" height="93" viewBox="0 0 70 93" fill="none" xmlns="http://www.w3.org/2000/svg">
<path d="M41.8094 92.328C40.4752 92.328 39.1409 92.3449 37.8067 92.328C34.9439 92.2829 33.1171 90.4983 33.0917 87.6468C33.0917 86.8418 32.8412 86.3998 32.1178 86.0058C30.4289 85.0825 29.8068 83.1712 30.5583 81.3781C30.7638 80.8855 30.8652 80.4661 30.5583 79.9988C30.4511 79.8576 30.391 79.6863 30.3866 79.509C30.6175 77.9045 29.6069 77.0376 28.5542 76.0833C27.5014 75.1291 27.2987 73.8511 27.3522 72.5C27.4732 69.5049 27.0707 66.6253 25.5619 63.9624C24.664 62.3833 23.462 61.0772 22.1841 59.8161C17.7957 55.484 14.9921 50.3019 14.0744 44.1936C12.5178 33.8517 15.8422 25.2072 23.6112 18.3305C29.2945 13.3115 36.0642 11.1328 43.6306 11.5551C47.6437 11.7731 51.5555 12.8961 55.0731 14.84C55.397 15.0387 55.7635 15.1574 56.1424 15.1863C56.5213 15.2152 56.9016 15.1534 57.2518 15.0061C60.3099 13.8469 63.552 13.249 66.8224 13.2412C68.4128 13.2412 68.973 13.8042 68.9814 15.4114C68.9781 18.8244 68.3376 22.2067 67.0926 25.3846C66.9489 25.6978 66.8789 26.0399 66.8882 26.3844C66.8975 26.729 66.9857 27.0668 67.1461 27.3719C69.7435 32.6776 70.5976 38.6684 69.5865 44.4886C68.5755 50.3088 65.7509 55.6606 61.5164 59.7795C59.4756 61.7753 57.705 63.8977 56.8606 66.676C56.3314 68.424 56.2835 70.2058 56.3539 71.9961C56.4411 74.1945 55.7909 75.9989 53.8486 77.2149C53.7194 77.2723 53.6095 77.3658 53.5321 77.4841C53.4548 77.6025 53.4132 77.7406 53.4123 77.882C53.496 78.7608 53.325 79.6452 52.9197 80.4295C52.7368 80.7588 52.9985 81.0291 53.1111 81.3134C53.874 83.2472 53.266 85.0881 51.4391 86.0818C50.817 86.4195 50.6284 86.8193 50.6115 87.4892C50.544 90.5462 48.7425 92.2998 45.7024 92.3223C44.4104 92.328 43.1099 92.328 41.8094 92.328ZM47.7432 74.7631C48.8691 74.7631 49.9951 74.7772 51.121 74.7631C52.4862 74.7406 53.1759 74.0791 53.2631 72.7055C53.2969 72.1092 53.2969 71.5115 53.2631 70.9152C53.1508 68.5215 53.6 66.1346 54.5749 63.9456C55.6389 61.5248 57.2772 59.5403 59.1603 57.7106C65.0378 52.0049 67.422 44.9902 66.7323 36.8805C66.5489 34.9202 66.0961 32.9945 65.3868 31.1579C65.2799 30.8764 65.263 30.4429 64.9364 30.381C64.5649 30.3134 64.4973 30.7666 64.3256 31.0059C63.6332 31.9798 62.9914 32.9763 62.2623 33.9305C62.0601 34.1476 61.9305 34.4223 61.8917 34.7164C61.8529 35.0105 61.9066 35.3095 62.0456 35.5716C62.6282 36.8467 63.1574 38.1472 63.7345 39.4336C64.0779 40.2105 63.9512 40.9002 63.2982 41.4209C60.671 43.5246 58.0259 45.6123 55.363 47.684C55.137 47.8886 54.8526 48.0173 54.5497 48.0521C54.2469 48.0869 53.9407 48.0261 53.6741 47.8782C53.3878 47.7349 53.1548 47.5038 53.009 47.2188C52.8631 46.9337 52.8122 46.6095 52.8634 46.2935C52.9563 45.3533 53.1083 44.4188 53.2294 43.4786C53.266 43.169 53.3645 42.8171 53.083 42.5891C52.7593 42.3273 52.4947 42.6369 52.2385 42.7749C51.3181 43.2618 50.4764 43.9627 49.2998 43.5996C48.9282 43.4842 48.8635 43.8811 48.8128 44.1626C48.0359 48.1231 45.435 50.3722 41.8432 51.7853C37.6209 53.4433 33.2353 54.5608 28.8075 55.5122C27.0792 55.8838 26.2009 55.0618 26.5556 53.3222C27.5155 48.7903 28.6527 44.3146 30.3866 39.9881C31.8166 36.4245 34.1586 33.9474 38.0769 33.2493C38.3133 33.2071 38.668 33.2099 38.5779 32.8693C38.2711 31.6899 39.0199 30.8651 39.4843 29.939C39.6026 29.6998 39.8474 29.4577 39.6307 29.1706C39.414 28.8834 39.0677 28.9792 38.7553 29.0214C37.8883 29.1424 37.0213 29.2606 36.1487 29.3592C35.4028 29.4436 34.7413 29.286 34.3472 28.5654C33.9531 27.8448 34.2543 27.2114 34.7075 26.6344C36.6854 24.1235 38.6643 21.6154 40.6441 19.1102C41.2408 18.3558 41.9642 18.1334 42.8763 18.5472C44.157 19.1102 45.4631 19.6422 46.7383 20.2361C46.9625 20.3691 47.2239 20.4253 47.4829 20.3963C47.742 20.3674 47.9845 20.2548 48.1739 20.0757C49.2911 19.1683 50.4747 18.3459 51.715 17.6155C51.9402 17.4832 52.3202 17.4072 52.2582 17.0525C52.2019 16.7485 51.8416 16.7091 51.5911 16.6021C48.7483 15.3717 45.6944 14.7026 42.5976 14.6317C35.8728 14.4769 29.9306 16.6021 25.0187 21.2157C18.6458 27.1805 15.9041 34.5554 17.0695 43.259C17.8745 49.2772 20.7288 54.237 25.1172 58.3749C27.5874 60.706 29.3022 63.7239 30.0404 67.0391C30.4598 68.8406 30.4204 70.659 30.4345 72.4831C30.4345 74.0763 31.1044 74.735 32.6554 74.7659C34.3444 74.7828 36.0333 74.7378 37.7222 74.7828C38.5667 74.8054 38.8482 74.4619 38.8116 73.6569C38.7693 72.6069 38.7665 71.5514 38.8116 70.4986C38.8482 69.6541 38.547 69.2741 37.6631 69.3163C36.7159 69.3717 35.766 69.3623 34.8201 69.2882C33.255 69.1531 32.647 67.9877 33.4971 66.6957C36.2585 62.5043 39.0565 58.3383 41.8432 54.161C42.2879 53.4967 42.8706 53.0773 43.7095 53.3307C44.5483 53.584 44.8073 54.2202 44.796 55.0449C44.7791 56.4129 44.8551 57.7866 44.7735 59.1518C44.7087 60.2018 45.1141 60.5086 46.1021 60.4326C47.0487 60.3678 47.9986 60.3678 48.9451 60.4326C50.3047 60.517 50.9155 61.5895 50.3244 62.8083C50.1724 63.1236 49.9838 63.422 49.8037 63.7232C47.7826 67.101 45.7699 70.4789 43.7263 73.8314C43.2703 74.5802 43.4449 74.7941 44.2696 74.7688C45.4237 74.735 46.5834 74.7603 47.7432 74.7603V74.7631ZM65.7133 18.1447C65.7753 16.5149 65.7133 16.4332 64.4523 16.4952C64.1695 16.5088 63.8877 16.537 63.6078 16.5796C55.1182 17.9195 48.5764 22.3839 43.6588 29.2691C41.3787 32.4612 41.4801 31.2705 44.295 34.2373C44.8073 34.775 45.2689 34.7806 45.8009 34.2148C46.5187 33.4464 47.2731 32.7089 48.0528 32.0108C48.7199 31.4225 49.4603 31.4028 50.133 32.0333C50.8058 32.6638 50.7917 33.4407 50.1893 34.2036C49.9863 34.4487 49.7701 34.6827 49.5419 34.9045C47.2224 37.2352 47.2478 37.2099 49.5419 39.5321C50.1668 40.1655 50.6341 40.1711 51.3462 39.7207C55.048 37.4059 58.2447 34.3681 60.7451 30.7891C63.4924 26.8539 65.2489 22.5472 65.7133 18.1447ZM37.8461 36.6047C36.9511 36.8079 36.1176 37.222 35.415 37.8125C34.7124 38.403 34.161 39.1528 33.8067 39.9994C32.1628 43.5884 31.1523 47.3772 30.2121 51.1914C30.0235 51.9598 30.305 52.0161 30.9609 51.8528C33.86 51.1611 36.7202 50.3155 39.5294 49.3195C40.7987 48.9065 42.0126 48.3393 43.1437 47.6305C43.7212 47.2599 44.2183 46.7769 44.6052 46.2101C44.9921 45.6433 45.2609 45.0044 45.3956 44.3315C44.8995 44.7789 44.3601 45.1759 43.7855 45.5166C41.3224 46.7804 38.6652 47.4166 35.9601 47.8445C34.7666 48.0331 33.9897 47.0816 34.2233 45.8431C34.5311 44.046 34.982 42.2764 35.5716 40.5511C36.0811 39.1268 36.5934 37.6574 37.8461 36.5934V36.6047ZM41.5983 60.1145C40.6384 61.5557 39.7883 62.7802 38.9945 64.0413C38.5948 64.6774 37.6772 65.3446 37.9615 65.9526C38.1979 66.4536 39.3098 66.0877 40.0304 66.1271C41.359 66.2059 41.9417 66.7548 42.0008 68.0806C42.0262 68.7956 42.0008 69.5106 42.0008 70.2227L42.2401 70.265L46.2513 63.574C44.9593 63.3741 43.7967 63.7401 42.7468 63.3544C41.3253 62.8337 41.8432 61.4234 41.5983 60.1145ZM41.8798 86.5884C40.4104 86.5884 38.9411 86.5884 37.4689 86.5884C36.3795 86.5884 36.1965 86.8333 36.2726 87.903C36.3401 88.8685 36.9228 89.1246 37.7644 89.1218C40.4611 89.1218 43.1577 89.1218 45.8516 89.1218C46.0621 89.1268 46.2726 89.1088 46.4793 89.0683C47.4504 88.8516 47.4364 88.0888 47.4195 87.3316C47.4026 86.5744 46.8227 86.5912 46.2935 86.5912C44.8213 86.5856 43.3492 86.5884 41.8798 86.5884ZM41.8601 83.3935C44.3147 83.3935 46.7692 83.3935 49.2238 83.3935C49.6517 83.3935 50.2709 83.5061 50.2456 82.8306C50.2203 82.2197 49.6432 82.2479 49.1872 82.2451C44.2781 82.2451 39.3689 82.2451 34.4598 82.2451C34.0178 82.2451 33.4267 82.1719 33.4436 82.839C33.4605 83.5061 34.0629 83.402 34.4964 83.402C36.9509 83.3992 39.4083 83.3935 41.8601 83.3935ZM41.9417 77.9721C39.4534 77.9721 36.9678 77.9721 34.4795 77.9721C34.0544 77.9721 33.4323 77.8764 33.4689 78.5548C33.4999 79.1515 34.0629 79.1459 34.5245 79.1459C39.3924 79.1459 44.2602 79.1459 49.1281 79.1459C49.6207 79.1459 50.254 79.1712 50.254 78.5126C50.2372 77.806 49.5447 77.9749 49.0943 77.9721C46.7017 77.9524 44.3203 77.9721 41.9417 77.9721ZM43.2225 41.0972C43.2028 39.884 42.6004 39.1043 41.618 38.865C41.1572 38.7277 40.6628 38.7568 40.2213 38.9472C39.7798 39.1376 39.4193 39.4771 39.2028 39.9065C38.5892 41.0325 38.288 42.2513 37.9671 43.4758C37.801 44.1147 38.0572 44.2527 38.6117 44.1007C39.7688 43.8176 40.899 43.4342 41.9896 42.955C42.8537 42.5581 43.2591 41.8938 43.2225 41.0972ZM39.3577 25.773C39.8701 25.7831 40.3717 25.9225 40.8158 26.1784C41.4998 26.6344 41.9417 26.4035 42.3808 25.7899C42.8015 25.2292 43.2555 24.6944 43.7404 24.1882C45.0409 22.7808 45.1929 22.975 43.352 22.1193C42.7242 21.8378 42.3639 21.8941 41.9445 22.4599C41.1761 23.5239 40.3232 24.5457 39.3577 25.773ZM56.6945 42.5975C56.8347 42.5342 56.9702 42.4609 57.0998 42.378C58.0963 41.5983 59.0984 40.827 60.0723 40.0247C60.427 39.7432 59.8471 37.6687 59.3968 37.5308C59.1997 37.4716 59.0702 37.6011 58.9379 37.7165C57.9809 38.5413 57.0266 39.3689 56.0639 40.1908C55.9917 40.2419 55.9308 40.3073 55.8849 40.3829C55.8391 40.4586 55.8093 40.5429 55.7974 40.6305C55.7855 40.7182 55.7918 40.8074 55.8158 40.8925C55.8399 40.9776 55.8813 41.0569 55.9373 41.1254C56.23 41.5814 56.2385 42.195 56.6945 42.5975Z" fill="white"/>
<path d="M4.4278 17.2439C6.79793 17.227 8.93161 19.3297 8.89783 21.6717C8.87093 22.8439 8.39516 23.9611 7.56867 24.7929C6.74218 25.6246 5.628 26.1074 4.45595 26.1417C2.11116 26.1783 0 24.0868 0 21.7026C0.0115706 20.529 0.480822 19.4063 1.30784 18.5735C2.13485 17.7407 3.2543 17.2636 4.4278 17.2439ZM4.45877 20.4557C3.65653 20.4922 3.2174 20.8976 3.22022 21.6942C3.22303 22.4908 3.64527 22.9327 4.44751 22.9243C5.24975 22.9159 5.67198 22.4795 5.68042 21.6886C5.68887 20.8976 5.23286 20.4951 4.45877 20.4557Z" fill="white"/>
<path d="M16.8695 3.72119C17.1061 3.77714 17.3362 3.85732 17.5564 3.96046C18.7639 4.61914 18.809 4.62477 20.1292 3.94357C20.4164 3.7673 20.757 3.69884 21.0901 3.7504C21.4231 3.80196 21.727 3.97018 21.9476 4.22505C22.1986 4.45068 22.3588 4.76007 22.3982 5.0953C22.4376 5.43053 22.3534 5.76862 22.1615 6.04628C22.0833 6.20618 21.9776 6.35103 21.849 6.47414C21.1566 7.03712 21.1397 7.51283 21.8265 8.16307C22.6203 8.91745 22.5753 9.85199 21.8828 10.4713C21.2636 11.0342 20.3318 11.0145 19.6309 10.2602C19.0257 9.60147 18.6373 9.66058 18.0377 10.2602C17.2749 11.0314 16.3488 11.0258 15.707 10.3896C15.0652 9.75347 15.0567 8.84708 15.8702 8.07581C16.5036 7.47342 16.543 7.05964 15.8562 6.50229C15.582 6.30365 15.3846 6.01674 15.2969 5.68974C15.2093 5.36273 15.2368 5.01552 15.3748 4.7064C15.631 4.10401 16.1067 3.79438 16.8695 3.72119Z" fill="white"/>
<path d="M40.2527 5.03301C40.2527 3.98024 40.2274 2.92748 40.2527 1.87472C40.2865 0.734692 40.9339 0.00282368 41.8375 8.79871e-06C42.7411 -0.00280608 43.3829 0.66995 43.4082 1.77338C43.4589 4.02528 43.4589 6.27156 43.4082 8.5122C43.3857 9.59874 42.7017 10.2771 41.8291 10.2771C40.9565 10.2771 40.3147 9.62126 40.264 8.50938C40.2161 7.35247 40.264 6.19274 40.264 5.03301H40.2527Z" fill="white"/>
<path d="M51.2814 5.0499C51.2815 5.30425 51.2285 5.55581 51.1257 5.78847C51.0229 6.02114 50.8727 6.22978 50.6847 6.40105C49.5981 7.49603 48.5229 8.59946 47.4138 9.66912C46.5947 10.4573 45.7699 10.4882 45.0943 9.82394C44.4188 9.15963 44.4863 8.27857 45.2407 7.50166C46.3667 6.34569 47.5067 5.20754 48.6608 4.08722C48.8702 3.8471 49.155 3.68517 49.4684 3.6279C49.7819 3.57063 50.1055 3.62142 50.3863 3.77195C50.6384 3.88239 50.8552 4.06002 51.0131 4.28541C51.1709 4.51081 51.2638 4.77528 51.2814 5.0499Z" fill="white"/>
<path d="M37.5589 10.294C37.0959 10.2679 36.6602 10.0666 36.3401 9.73104C35.2141 8.59101 34.046 7.47914 32.9313 6.30533C32.2388 5.58191 32.2529 4.66989 32.8834 4.05343C33.5139 3.43697 34.3218 3.40882 35.0424 4.09284C36.2584 5.24694 37.4379 6.44608 38.6032 7.65648C38.8381 7.87427 38.9935 8.16437 39.0445 8.48062C39.0955 8.79687 39.0392 9.1211 38.8847 9.4017C38.7626 9.65456 38.5755 9.87042 38.3425 10.0272C38.1096 10.184 37.8391 10.2761 37.5589 10.294Z" fill="white"/>
<path d="M1.54538 38.8932C1.7379 38.8822 1.93066 38.9103 2.11202 38.9758C2.29339 39.0413 2.45959 39.1429 2.6006 39.2744C2.74161 39.406 2.8545 39.5647 2.93245 39.7411C3.01041 39.9175 3.0518 40.1078 3.05415 40.3007C3.07102 40.5027 3.04722 40.7061 2.98417 40.8987C2.92112 41.0914 2.82009 41.2695 2.68705 41.4225C2.55401 41.5755 2.39166 41.7002 2.20959 41.7894C2.02752 41.8786 1.82943 41.9304 1.62701 41.9417C1.22025 41.9359 0.830392 41.7781 0.534025 41.4995C0.237658 41.2208 0.0562137 40.8414 0.0253421 40.4358C0.021204 40.234 0.0575264 40.0334 0.132166 39.8458C0.206806 39.6583 0.318252 39.4876 0.459929 39.3438C0.601605 39.2 0.770642 39.0861 0.957067 39.0087C1.14349 38.9313 1.34353 38.892 1.54538 38.8932Z" fill="white"/>
<path d="M21.956 32.2698C21.7026 32.286 21.4492 32.2375 21.2197 32.1288C20.9902 32.0201 20.7921 31.8548 20.644 31.6484C20.4959 31.4421 20.4028 31.2015 20.3733 30.9493C20.3438 30.6971 20.3789 30.4415 20.4754 30.2065C21.4055 27.6985 22.8428 25.4092 24.6977 23.4818C25.2748 22.8766 26.0517 22.8653 26.7075 23.3945C27.4141 23.9575 27.5323 24.7795 26.989 25.455C25.4731 27.2978 24.2006 29.3281 23.203 31.4958C23.084 31.725 22.9054 31.918 22.6859 32.0542C22.4665 32.1904 22.2143 32.2649 21.956 32.2698Z" fill="white"/>
<path d="M56.1821 20.163C57.7138 20.1837 59.1764 20.8038 60.2562 21.8904C61.336 22.9769 61.9469 24.4434 61.9579 25.9752C61.969 27.507 61.3793 28.9821 60.3153 30.0841C59.2513 31.1862 57.7978 31.8273 56.2666 31.8701C55.4878 31.8918 54.7125 31.7579 53.9861 31.4762C53.2598 31.1945 52.5969 30.7707 52.0364 30.2296C51.4759 29.6884 51.0291 29.0409 50.7221 28.3249C50.415 27.6088 50.254 26.8387 50.2484 26.0597C50.2427 25.2806 50.3927 24.5082 50.6893 23.7879C50.986 23.0675 51.4235 22.4135 51.9761 21.8644C52.5287 21.3152 53.1854 20.8819 53.9076 20.5897C54.6299 20.2976 55.4031 20.1525 56.1821 20.163ZM58.9661 25.987C58.9458 25.2605 58.6452 24.57 58.1274 24.06C57.6095 23.55 56.9145 23.2601 56.1878 23.2509C55.4586 23.2694 54.7664 23.5759 54.2626 24.1034C53.7588 24.6309 53.4844 25.3365 53.4996 26.0658C53.5014 26.4182 53.5732 26.7668 53.7109 27.0913C53.8485 27.4157 54.0493 27.7096 54.3015 27.9558C54.5537 28.2019 54.8523 28.3956 55.18 28.5253C55.5077 28.6551 55.8579 28.7185 56.2103 28.7118C56.5714 28.7186 56.9303 28.6529 57.2657 28.5188C57.601 28.3847 57.9061 28.1847 58.163 27.9307C58.4198 27.6768 58.6232 27.3739 58.7612 27.0401C58.8991 26.7063 58.9688 26.3482 58.9661 25.987Z" fill="white"/>
</svg>
