<svg width="70" height="71" viewBox="0 0 70 71" fill="none" xmlns="http://www.w3.org/2000/svg">
<path d="M0 61.0719V59.1591C0.0273783 59.0477 0.0602323 58.9401 0.0803098 58.8287C0.877932 54.481 3.36571 51.7286 7.72799 50.7977C8.14597 50.7083 8.30111 50.5075 8.30111 50.1023C8.2847 49.3189 8.52085 48.5509 8.97462 47.9121C9.25387 47.527 9.18999 47.2386 8.94724 46.8699C8.67754 46.4869 8.4871 46.0539 8.38711 45.5962C8.28713 45.1386 8.27961 44.6656 8.36499 44.205C8.74646 42.2119 10.1902 41.0766 12.4279 40.989C13.3259 40.9543 13.3533 40.9342 13.3533 40.049C13.3533 36.9997 13.3533 33.9491 13.3533 30.8974C13.3533 22.839 13.3405 14.7806 13.3533 6.72229C13.3533 3.80194 14.6766 1.67373 17.3542 0.439878C17.7448 0.257356 18.1646 0.144193 18.5716 0H44.9497C46.2274 0.37417 47.4211 0.912611 48.3593 1.91283C50.4218 4.1031 52.4989 6.26964 54.5541 8.46173C55.1448 9.08144 55.6071 9.81186 55.9144 10.611C56.2217 11.4101 56.3679 12.262 56.3446 13.1179C56.3245 16.0547 56.3556 18.9914 56.3264 21.9282C56.3264 22.5944 56.549 22.8025 57.1988 22.7842C58.5641 22.7477 59.9366 22.766 61.2964 22.7842C66.0603 22.8226 69.9407 26.5917 69.9644 31.3628C70.0119 41.4015 70.0119 51.4402 69.9644 61.4789C69.937 66.2701 66.0603 70.0027 61.28 70.0064C54.7457 70.0064 48.2132 70.0356 41.6789 70.0064C38.1946 69.9863 35.6813 68.287 34.0294 65.2608C33.3596 64.0361 33.1387 62.6927 33.084 61.3147C33.0712 60.9861 32.9562 60.7452 32.5674 60.7233C32.1787 60.7014 31.8885 60.7744 31.8008 61.2088C31.6901 61.7693 31.4522 62.297 31.1054 62.7511C30.8955 63.0267 30.9941 63.2439 31.1584 63.4903C32.0308 64.799 32.1549 66.1679 31.3683 67.5478C30.5816 68.9277 29.3477 69.4789 27.7781 69.4734C21.6088 69.4552 15.4396 69.4734 9.2703 69.4734C6.80625 69.4734 4.70725 68.5608 2.92036 66.8871C1.23202 65.2955 0.346792 63.3188 0 61.0719ZM15.7498 23.1584V39.892C15.7498 40.9872 15.7498 40.9872 16.8614 40.9872C20.4808 40.9872 24.1002 41.0127 27.7196 40.9872C31.5526 40.9543 32.8303 44.8859 31.1584 47.0214C31.0596 47.1318 31.005 47.2748 31.005 47.4229C31.005 47.5711 31.0596 47.714 31.1584 47.8245C32.1403 49.2846 32.1294 50.7612 31.1675 52.2287C31.0032 52.4788 30.9266 52.6942 31.1164 52.9752C32.1549 54.5011 32.1422 56.0307 31.1036 57.5565C30.8225 57.969 31.0434 58.1972 31.4376 58.3049C32.6368 58.6389 33.0803 58.3049 33.0803 57.0802C33.0803 48.9068 33.0803 40.7335 33.0803 32.5601C33.0559 31.7179 33.1042 30.8752 33.2245 30.0413C33.9729 25.7575 37.5083 22.797 41.8633 22.7824C45.6196 22.769 49.3759 22.769 53.1322 22.7824C53.6944 22.7824 53.9718 22.6328 53.9682 22.0158C53.9499 19.0115 53.9682 16.0054 53.9536 13.0011C53.9536 12.0665 53.8787 12.0173 52.9114 12.0154C50.8616 12.0154 48.8137 12.0154 46.764 12.0154C45.1213 12.0154 44.7909 11.6759 44.7891 10.0551C44.7891 7.7791 44.7891 5.50304 44.7891 3.22517C44.7891 2.27788 44.7617 2.25415 43.8418 2.25232H36.603C31.2295 2.25232 25.8561 2.28335 20.4826 2.24137C17.1972 2.21582 15.6677 4.51925 15.717 6.976C15.8228 12.3641 15.7498 17.7612 15.7498 23.1584ZM67.7249 46.3844C67.7249 41.4903 67.7249 36.5963 67.7249 31.7023C67.7249 27.7616 65.0089 25.0402 61.0829 25.0366C54.7092 25.028 48.3355 25.028 41.9618 25.0366C41.5073 25.0248 41.0527 25.0554 40.6039 25.1278C37.3988 25.7484 35.3107 28.3384 35.3107 31.7187C35.301 41.5055 35.301 51.293 35.3107 61.081C35.3094 61.6961 35.383 62.309 35.5298 62.9063C36.2891 65.9635 38.8279 67.8344 42.2831 67.8344C48.428 67.8465 54.5729 67.8465 60.7178 67.8344C61.4006 67.8412 62.0821 67.7714 62.7493 67.6263C65.7226 66.9345 67.7121 64.4121 67.7194 61.3402C67.7322 56.3537 67.7157 51.369 67.7249 46.3844ZM13.1872 67.2284C17.2739 67.2284 20.3677 64.0872 20.3549 59.964C20.3504 59.0223 20.1606 58.0906 19.7961 57.2222C19.4316 56.3539 18.8996 55.5658 18.2306 54.903C17.5615 54.2402 16.7685 53.7157 15.8967 53.3594C15.025 53.0031 14.0916 52.822 13.1498 52.8265C12.2081 52.8309 11.2764 53.0208 10.408 53.3853C9.53968 53.7498 8.75161 54.2817 8.08883 54.9508C7.42605 55.6198 6.90154 56.4129 6.54524 57.2846C6.18895 58.1564 6.00785 59.0898 6.01228 60.0315C6.02323 64.0927 9.14984 67.2339 13.1872 67.2284ZM20.1231 43.36H12.8222C12.6178 43.36 12.4115 43.36 12.2071 43.36C11.3638 43.4038 10.7725 43.924 10.7122 44.665C10.6465 45.4681 11.1393 46.0649 12.0154 46.2164C12.2628 46.2502 12.5125 46.2631 12.762 46.2548C17.656 46.2548 22.5494 46.2548 27.4422 46.2548C27.8065 46.2754 28.1716 46.2322 28.5209 46.127C29.1141 45.9116 29.4536 45.5064 29.481 44.8493C29.5084 44.1923 29.2054 43.767 28.6414 43.4914C28.3231 43.3636 27.9792 43.3123 27.6375 43.3417L20.1231 43.36ZM20.1121 48.5637H12.6743C12.2643 48.541 11.8545 48.6109 11.4752 48.7681C10.9276 49.0255 10.5717 49.7136 10.7195 50.2283C10.9021 50.8452 11.4222 50.6262 11.8147 50.6243C13.4099 50.6097 15.0033 50.6025 16.5128 51.2285C16.9114 51.393 17.3391 51.4756 17.7704 51.4713C20.886 51.4713 24.0017 51.4713 27.1173 51.4713C27.4824 51.4857 27.8481 51.479 28.2125 51.4512C28.544 51.4208 28.8537 51.2726 29.0854 51.0336C29.3171 50.7945 29.4555 50.4803 29.4755 50.148C29.523 49.3832 29.1287 48.8393 28.3621 48.6677C28.0504 48.6047 27.7328 48.5753 27.4148 48.5801C24.9782 48.56 22.5451 48.5637 20.1121 48.5637ZM24.1276 67.0824C25.4253 67.0824 26.7231 67.1006 28.019 67.0824C28.9444 67.0641 29.4646 66.5439 29.4792 65.7153C29.4938 64.8866 28.9079 64.2916 27.9934 64.2807C26.0605 64.2606 24.1258 64.2807 22.191 64.2679C22.0217 64.2525 21.8516 64.2898 21.7043 64.3748C21.5569 64.4597 21.4394 64.5881 21.3679 64.7424C21.0115 65.377 20.5827 65.968 20.0902 66.5038C19.9661 66.6461 19.6832 66.7611 19.8128 66.9893C19.9205 67.1718 20.1888 67.0933 20.3877 67.0933C21.6307 67.0842 22.881 67.0824 24.1331 67.0824H24.1276ZM24.5638 53.844C23.4285 53.844 22.2914 53.844 21.1561 53.844C20.959 53.844 20.7071 53.771 20.583 53.9609C20.437 54.1835 20.6871 54.3259 20.7966 54.4829C21.1657 54.9738 21.4762 55.5061 21.722 56.069C21.9045 56.5125 22.191 56.6713 22.6656 56.6658C24.4142 56.6476 26.1646 56.6658 27.9131 56.6549C28.8841 56.6549 29.4755 56.0964 29.4755 55.2367C29.4755 54.377 28.9279 53.8623 27.904 53.8477C26.7906 53.8313 25.6772 53.844 24.5638 53.844ZM25.5878 61.8641V61.8531C26.4511 61.8531 27.3163 61.8805 28.1778 61.844C28.9736 61.8093 29.4737 61.2398 29.4737 60.4605C29.4737 59.6811 28.9681 59.0934 28.1778 59.077C26.4967 59.0405 24.8157 59.0624 23.1329 59.0587C22.7678 59.0587 22.5962 59.2412 22.5853 59.6063C22.6102 60.1282 22.5937 60.6512 22.536 61.1705C22.4338 61.7673 22.6857 61.886 23.1949 61.8732C23.9962 61.8495 24.792 61.8641 25.5878 61.8641ZM47.359 4.28197L47.1765 4.36958C47.1765 5.95144 47.1765 7.53695 47.1765 9.12611C47.1765 9.41267 47.2878 9.63352 47.6 9.63535C49.1332 9.64447 50.6682 9.63535 52.4112 9.63535L47.359 4.28197ZM3.10288 61.3713C2.88203 61.4406 2.4531 61.2216 2.44032 61.7546C2.42389 62.4481 2.83639 62.9409 3.44602 62.9245C3.69972 62.9245 4.07755 63.0815 4.08302 62.5595C4.08667 61.7473 3.81289 61.3804 3.10288 61.3713ZM2.99154 59.1116C3.73075 59.1116 3.89137 58.9291 3.95161 58.1388C3.99176 57.6113 3.64862 57.677 3.34016 57.6715C2.65387 57.6569 2.40564 57.9398 2.36184 58.6645C2.32533 59.1974 2.6849 59.097 2.98789 59.1116H2.99154Z" fill="white"/>
<path d="M28.1084 34.2084C28.145 33.8068 28.0524 33.4041 27.8443 33.0588C27.6362 32.7134 27.3233 32.4435 26.9512 32.2882C26.1938 31.9232 25.3998 31.6384 24.6332 31.2935C23.1493 30.6254 22.401 29.5066 22.4922 27.8383C22.5652 26.484 23.1456 25.4856 24.3941 24.9362C24.8577 24.7318 25.1242 24.511 25.1242 23.9451C25.1242 23.2534 25.5677 22.8117 26.1372 22.7934C26.7066 22.7752 27.1757 23.195 27.2104 23.8886C27.236 24.3814 27.4568 24.573 27.8967 24.6442C28.3452 24.711 28.778 24.8582 29.1743 25.0786C29.7931 25.4436 29.9884 25.9474 29.7219 26.5023C29.4554 27.0571 28.9827 27.2032 28.2855 26.8856C27.455 26.5077 26.6099 26.338 25.701 26.5497C25.0585 26.7012 24.6314 27.0644 24.5292 27.7215C24.4709 28.0153 24.5078 28.3201 24.6345 28.5915C24.7612 28.8629 24.9711 29.0869 25.2337 29.231C25.9163 29.6544 26.6939 29.8534 27.424 30.1637C29.6453 31.1091 30.5487 32.7938 30.0596 35.1483C29.8004 36.3895 29.1032 37.3058 27.8857 37.7475C27.4532 37.9044 27.2177 38.1125 27.1995 38.6108C27.1721 39.2879 26.7614 39.6585 26.1828 39.6731C25.5768 39.6877 25.1497 39.308 25.1096 38.5998C25.0822 38.1198 24.876 37.9227 24.4452 37.8077C23.8476 37.6516 23.2954 37.3564 22.8335 36.9462C22.6027 36.759 22.4158 36.5235 22.286 36.2563C22.0487 35.7087 22.16 35.2214 22.6401 34.86C23.1201 34.4986 23.5125 34.7121 23.8374 35.0863C24.5073 35.8584 25.3469 36.1175 26.3434 36.0427C27.4988 35.9569 28.1084 35.3509 28.1084 34.2084Z" fill="white"/>
<path d="M31.538 14.0213C34.4748 14.0213 37.4097 14.0213 40.3447 14.0213C40.9123 14.0213 41.3924 14.1363 41.6351 14.7039C41.697 14.8457 41.7268 14.9994 41.7225 15.154C41.7181 15.3086 41.6797 15.4603 41.61 15.5984C41.5403 15.7364 41.4409 15.8574 41.3191 15.9527C41.1972 16.048 41.0558 16.1152 40.905 16.1495C40.5258 16.2238 40.1396 16.2562 39.7533 16.2462C34.2448 16.2462 28.7375 16.2462 23.2314 16.2462C22.9127 16.2502 22.5941 16.2295 22.2786 16.1842C21.6234 16.0838 21.231 15.6092 21.2802 15.0215C21.3022 14.7458 21.4295 14.489 21.6359 14.3048C21.8422 14.1205 22.1117 14.0229 22.3882 14.0322C23.3208 14.0085 24.2535 14.0231 25.188 14.0231L31.538 14.0213Z" fill="white"/>
<path d="M38.5341 21.3552H30.4812C30.2309 21.3634 29.9804 21.3561 29.731 21.3333C29.0904 21.2475 28.6541 20.7711 28.6724 20.198C28.6906 19.6249 29.1086 19.2124 29.7237 19.1247C29.9273 19.1022 30.1323 19.0943 30.337 19.101C35.8236 19.101 41.3102 19.101 46.7969 19.101C47.0927 19.0768 47.3905 19.1084 47.6748 19.1941C47.8887 19.2694 48.074 19.4091 48.205 19.5942C48.3361 19.7792 48.4065 20.0004 48.4065 20.2272C48.4065 20.4539 48.3361 20.6751 48.205 20.8602C48.074 21.0452 47.8887 21.185 47.6748 21.2603C47.3672 21.3512 47.0452 21.3834 46.7257 21.3552H38.5341Z" fill="white"/>
<path d="M24.0199 21.3441C23.5198 21.3441 23.0179 21.3624 22.5177 21.3441C21.7676 21.3094 21.2912 20.8732 21.2802 20.249C21.2693 19.6248 21.7402 19.1392 22.4794 19.1173C23.5034 19.0863 24.5291 19.0845 25.5513 19.1173C26.2722 19.1429 26.703 19.5901 26.7121 20.2125C26.7231 20.8604 26.274 21.2894 25.5221 21.3514C25.477 21.3514 25.4314 21.3514 25.3852 21.3514H24.0199V21.3441Z" fill="white"/>
<path d="M46.0796 14.0341C46.534 14.0341 46.9922 14.0012 47.4394 14.0341C47.6941 14.0365 47.9377 14.1384 48.1182 14.3182C48.2987 14.498 48.4016 14.7413 48.4049 14.996C48.4542 15.6001 48.1694 16.0418 47.5762 16.1422C46.5675 16.3147 45.5368 16.3147 44.5281 16.1422C43.9349 16.0437 43.6392 15.6056 43.6885 15.0033C43.6923 14.7483 43.7948 14.5048 43.9746 14.324C44.1544 14.1432 44.3973 14.0393 44.6522 14.0341C45.1231 13.9994 45.6032 14.0341 46.0796 14.0341Z" fill="white"/>
<path d="M51.5807 27.1576C54.6301 27.1576 57.6806 27.1576 60.7324 27.1576C63.3607 27.1576 64.7917 28.5922 64.7972 31.2114C64.7972 32.2353 64.8063 33.2593 64.7972 34.2832C64.7698 36.5155 63.2731 38.0176 61.0573 38.0231C57.5291 38.0231 54.001 38.0231 50.471 38.0231C50.2661 38.0326 50.0608 38.0229 49.8577 37.9939C49.3102 37.8899 48.9451 37.5449 48.9141 36.9809C48.8844 36.7272 48.9524 36.4716 49.1043 36.2662C49.2562 36.0608 49.4805 35.9208 49.7318 35.8748C50.0629 35.8005 50.4019 35.7668 50.7411 35.7744C54.0886 35.7744 57.4342 35.7744 60.7799 35.7744C62.1579 35.7744 62.5321 35.3984 62.5376 34.0423C62.5376 32.9946 62.5485 31.9469 62.5376 30.9011C62.523 29.9045 62.0557 29.4208 61.0682 29.419C54.7189 29.4093 48.3684 29.4093 42.0166 29.419C41.0237 29.419 40.5126 29.9429 40.498 30.9467C40.4834 32.0613 40.4834 33.1765 40.498 34.2924C40.5108 35.2743 40.9926 35.7525 41.9728 35.7708C42.9529 35.789 43.9805 35.7708 44.9789 35.7817C45.2515 35.7782 45.5235 35.807 45.7893 35.8675C46.0525 35.9114 46.2877 36.0574 46.4439 36.2737C46.6001 36.4901 46.6646 36.7593 46.6234 37.0229C46.576 37.6015 46.2073 37.9811 45.6543 37.9939C44.1941 38.0322 42.7339 38.0943 41.2883 37.9647C39.7296 37.8278 38.5395 36.5465 38.3424 34.9951C38.1724 33.5241 38.1584 32.0392 38.3004 30.5653C38.483 28.4334 39.9212 27.174 42.0914 27.163C45.2527 27.1466 48.4176 27.1594 51.5807 27.1576Z" fill="white"/>
<path d="M64.9195 57.2043C64.9195 58.847 64.9195 60.4806 64.9195 62.1178C64.9104 64.4194 63.7094 65.624 61.4315 65.6277C60.8839 65.6277 60.3364 65.6423 59.7888 65.6277C59.0286 65.6047 58.3065 65.2891 57.7733 64.7467C57.2401 64.2043 56.9369 63.477 56.9269 62.7164C56.905 59.0076 56.905 55.2963 56.9269 51.5826C56.9269 50.1224 58.0548 48.9853 59.5753 48.894C60.4608 48.8384 61.349 48.8384 62.2346 48.894C63.8134 48.9944 64.8556 50.19 64.914 51.8783C64.914 51.9239 64.914 51.9695 64.914 52.0133L64.9195 57.2043ZM62.6653 57.2298C62.6653 55.547 62.6653 53.8659 62.6653 52.1831C62.6653 51.2449 62.5522 51.1409 61.5921 51.1336C61.1376 51.1336 60.6795 51.1336 60.2269 51.1336C59.2905 51.1427 59.1554 51.2632 59.1518 52.194C59.1518 54.6946 59.1518 57.1952 59.1518 59.6957C59.1518 60.6083 59.1518 61.5209 59.1609 62.4226C59.1609 63.0651 59.4785 63.3863 60.1301 63.379C60.6065 63.379 61.0847 63.39 61.5611 63.379C62.4171 63.3608 62.6562 63.1235 62.6653 62.2839C62.6727 60.5974 62.6653 58.9109 62.6653 57.2298Z" fill="white"/>
<path d="M51.5753 65.6259C51.0058 65.6259 50.4364 65.6351 49.8669 65.6259C48.518 65.6004 47.5744 64.7133 47.527 63.3754C47.4868 62.2164 47.4813 61.0538 47.527 59.8947C47.5854 58.566 48.4761 57.688 49.8048 57.6388C50.9638 57.595 52.1265 57.5931 53.2855 57.6388C54.6052 57.6899 55.4849 58.6226 55.5086 59.9331C55.5293 61.0696 55.5293 62.2073 55.5086 63.3462C55.4867 64.6841 54.5559 65.5967 53.2107 65.6241C52.6668 65.6351 52.121 65.6259 51.5753 65.6259ZM49.7701 61.5904C49.792 63.5981 49.5219 63.3754 51.5315 63.3773H51.599C53.4918 63.3955 53.2727 63.4959 53.2673 61.6962C53.2673 59.6155 53.5082 59.8893 51.4658 59.8856C49.5365 59.8838 49.7902 59.6483 49.7701 61.5904Z" fill="white"/>
<path d="M51.5552 39.7076C52.1466 39.7076 52.738 39.6948 53.3294 39.7076C53.8943 39.7087 54.4367 39.9292 54.8422 40.3225C55.2478 40.7157 55.4847 41.2511 55.5032 41.8157C55.5415 43.0441 55.5397 44.2743 55.5032 45.5027C55.4667 46.7311 54.6435 47.5798 53.3732 47.6619C52.1466 47.7377 50.9165 47.7377 49.6899 47.6619C48.4122 47.5871 47.5653 46.6599 47.5233 45.3676C47.4868 44.2323 47.485 43.0916 47.5233 41.9563C47.569 40.602 48.5035 39.7186 49.845 39.6985C50.4181 39.7003 50.9858 39.7076 51.5552 39.7076ZM51.5078 45.4479C53.4845 45.4224 53.2655 45.7144 53.2728 43.6574C53.2728 41.7062 53.4042 41.9472 51.5571 41.938C49.5311 41.9289 49.772 41.7391 49.7738 43.7085C49.7756 45.6779 49.5256 45.4297 51.5078 45.4479Z" fill="white"/>
<path d="M51.5096 56.8795C50.962 56.8795 50.4145 56.8904 49.8669 56.8795C48.518 56.8503 47.5817 55.9796 47.527 54.6253C47.4795 53.4663 47.4795 52.3036 47.527 51.1446C47.5799 49.8305 48.5016 48.927 49.803 48.8868C50.9407 48.8515 52.0784 48.8515 53.2162 48.8868C54.6106 48.9306 55.4904 49.8524 55.5105 51.2505C55.5251 52.3456 55.5251 53.4407 55.5105 54.5359C55.494 55.9559 54.576 56.863 53.1377 56.8886C52.6011 56.8886 52.0553 56.8795 51.5096 56.8795ZM51.5278 51.1337C49.5201 51.1556 49.7738 50.8891 49.7738 52.8494C49.7738 54.8571 49.5128 54.6271 51.5388 54.6271C53.4753 54.6271 53.2709 54.8425 53.2709 52.8731C53.2709 50.9037 53.468 51.1556 51.5278 51.1337Z" fill="white"/>
<path d="M56.9214 43.6374C56.9214 43.0899 56.9214 42.5423 56.9214 41.9947C56.9433 40.635 57.834 39.7242 59.1865 39.7059C60.3017 39.6913 61.4169 39.695 62.5321 39.7059C63.8974 39.7169 64.8191 40.5437 64.8921 41.9199C64.9533 43.1019 64.9533 44.2862 64.8921 45.4681C64.8246 46.7458 63.932 47.6237 62.6398 47.6821C61.4826 47.7332 60.3181 47.7369 59.1609 47.6821C57.7592 47.6146 56.9323 46.6837 56.9195 45.2747C56.9177 44.7308 56.9214 44.1832 56.9214 43.6374ZM60.8949 45.4481C62.9355 45.4225 62.658 45.7127 62.6617 43.674C62.6617 41.7648 62.9264 41.9327 60.9095 41.9272C58.9401 41.9272 59.1518 41.8086 59.1536 43.6904C59.1573 45.7018 58.9747 45.4316 60.8949 45.4481Z" fill="white"/>
<path d="M46.2384 61.6762C46.2384 62.2675 46.253 62.8607 46.2384 63.4503C46.1982 64.6586 45.3258 65.5785 44.1284 65.6132C42.9019 65.6515 41.6717 65.646 40.4433 65.6132C39.9223 65.6158 39.4186 65.4262 39.0287 65.0807C38.6387 64.7352 38.3899 64.258 38.3297 63.7405C38.1624 62.3844 38.1557 61.0133 38.3096 59.6557C38.4319 58.4693 39.2569 57.7008 40.4433 57.6479C41.6698 57.5913 42.9019 57.5858 44.1266 57.6479C45.3878 57.7173 46.1946 58.6354 46.2292 59.9002C46.2511 60.4934 46.2384 61.0848 46.2384 61.6762ZM42.19 63.3773C44.2799 63.3773 44.0828 63.5817 44.0755 61.5429C44.0755 59.6666 44.3164 59.8783 42.3963 59.8856C40.1859 59.8856 40.5035 59.5845 40.4944 61.7291C40.4871 63.5489 40.2589 63.3846 42.19 63.3773Z" fill="white"/>
<path d="M46.2347 52.8967C46.2347 53.5118 46.2548 54.1269 46.2347 54.7401C46.2293 55.2939 46.0099 55.8242 45.6224 56.2198C45.2349 56.6155 44.7094 56.8459 44.1558 56.8629C42.9055 56.9085 41.6534 56.9048 40.4031 56.8629C39.8953 56.8526 39.4081 56.6602 39.0302 56.3208C38.6524 55.9815 38.4089 55.5177 38.3443 55.0139C38.1721 53.6355 38.166 52.2414 38.326 50.8615C38.452 49.7062 39.3208 48.9341 40.4962 48.8885C41.6717 48.8428 42.869 48.8428 44.0445 48.8885C45.3586 48.9378 46.2146 49.865 46.2347 51.1883C46.2475 51.7577 46.2347 52.3272 46.2347 52.8948V52.8967ZM42.2977 51.1335H42.1627C40.2571 51.1499 40.4908 50.9236 40.4981 52.7981C40.4981 54.8825 40.1914 54.6233 42.3397 54.6233C44.3474 54.6233 44.0755 54.8332 44.0737 52.8875C44.07 50.8834 44.3529 51.1572 42.2977 51.1335Z" fill="white"/>
<path d="M46.242 43.6994C46.242 44.247 46.242 44.7945 46.242 45.3421C46.2164 46.6909 45.4298 47.5999 44.0827 47.6802C42.8785 47.7505 41.6712 47.7505 40.467 47.6802C39.2131 47.609 38.399 46.8041 38.295 45.5502C38.18 44.3032 38.18 43.0482 38.295 41.8012C38.4264 40.4669 39.2952 39.7277 40.6258 39.7168C41.7209 39.707 42.813 39.707 43.902 39.7168C45.3275 39.7296 46.2037 40.5911 46.2329 42.0001C46.2511 42.5605 46.2402 43.1299 46.242 43.6994ZM42.2812 45.448H42.4181C44.3182 45.4297 44.0754 45.6615 44.0718 43.7688C44.0718 41.7227 44.3784 41.9344 42.2174 41.9289C40.2388 41.9289 40.4907 41.7811 40.4962 43.6282C40.5017 45.7272 40.2023 45.4261 42.2812 45.448Z" fill="white"/>
<path d="M16.062 61.8295C16.062 62.8607 15.6823 63.7204 14.735 64.257C14.4811 64.4081 14.2905 64.6461 14.1984 64.9269C14.1234 65.1328 13.9852 65.3097 13.8036 65.4323C13.622 65.5549 13.4062 65.6169 13.1872 65.6095C12.978 65.6229 12.77 65.5688 12.5939 65.4551C12.4178 65.3414 12.2828 65.1742 12.2089 64.978C12.0519 64.5691 11.7581 64.3811 11.4003 64.2095C11.0023 64.0301 10.6735 63.7257 10.464 63.3426C10.3332 63.1028 10.2904 62.8248 10.3431 62.5567C10.3958 62.2887 10.5406 62.0476 10.7524 61.8751C11.2324 61.51 11.6869 61.594 12.1012 61.9919C12.2247 62.1257 12.3742 62.2328 12.5405 62.3069C12.7069 62.381 12.8865 62.4203 13.0686 62.4226C13.4063 62.4226 13.722 62.3715 13.8334 61.9937C13.8841 61.8386 13.8765 61.6703 13.812 61.5205C13.7475 61.3706 13.6305 61.2494 13.4829 61.1797C12.9846 60.9114 12.4444 60.7215 11.937 60.4642C10.6593 59.8126 10.1574 58.5258 10.6374 57.1788C10.7269 56.8715 10.8986 56.5945 11.1339 56.3775C11.6329 56.0006 12.0419 55.5174 12.3312 54.963C12.6743 54.2785 13.6946 54.326 14.0834 55.0141C14.3001 55.4075 14.6503 55.7105 15.0709 55.8683C15.7152 56.1402 15.9835 56.686 15.8411 57.2189C15.6586 57.8578 15.0563 58.1662 14.3809 57.9308C14.0159 57.803 13.6508 57.6606 13.2566 57.699C13.0394 57.7209 12.8368 57.7683 12.782 58.0093C12.7626 58.1119 12.7812 58.2181 12.8342 58.3081C12.8873 58.3981 12.9712 58.4657 13.0704 58.4984C13.5012 58.7047 13.9465 58.8817 14.3773 59.0843C15.5326 59.6264 16.1021 60.5299 16.062 61.8295Z" fill="white"/>
</svg>
