<svg width="70" height="92" viewBox="0 0 70 92" fill="none" xmlns="http://www.w3.org/2000/svg">
<path d="M36.0368 0C40.1152 2.22858 41.6967 6.02725 42.4903 10.3055C42.8291 12.1249 42.654 13.9729 42.6635 15.8094C42.6635 16.3975 42.8272 16.7077 43.4248 16.9018C44.8635 17.3643 45.8437 18.3501 46.3784 19.7736C47.3509 22.3543 48.3406 24.9311 49.2922 27.5156C50.1771 29.9459 48.8049 31.9671 46.2091 32.0527C44.6104 32.106 43.0061 32.0641 41.4055 32.0641C40.4825 32.0641 39.8164 31.6683 39.451 30.7966C39.3387 30.5283 39.1827 30.279 39.038 30.003C38.2958 30.9888 38.2768 31.4627 38.8858 32.4467C39.536 33.455 39.7789 34.6727 39.5652 35.8533C39.3416 37.3205 38.8875 38.7433 38.2197 40.0687C37.9134 40.6795 37.5112 41.2372 37.0283 41.7207C35.7437 42.9539 34.1736 42.9729 32.9213 41.6997C31.4483 40.1962 30.9002 38.2569 30.4701 36.2663C30.2921 35.5444 30.2797 34.7917 30.4336 34.0644C30.5875 33.337 30.9038 32.6539 31.3589 32.066C31.9108 31.3257 31.2694 30.7529 31.1229 30.1248C31.0399 30.1103 30.9546 30.1289 30.8852 30.1766C30.8158 30.2242 30.7679 30.2972 30.7518 30.3798C30.255 31.7292 29.2616 32.1612 27.8818 32.0927C26.5496 32.0165 25.2174 32.0927 23.8852 32.0698C21.1466 32.0089 19.7668 29.9573 20.7279 27.3862C21.6509 24.9121 22.5968 22.4514 23.5084 19.9773C24.066 18.4548 25.0423 17.3757 26.5953 16.8923C27.1662 16.7115 27.2899 16.3727 27.2899 15.836C27.2899 13.676 27.1738 11.5083 27.6325 9.36536C28.1622 6.79878 29.2946 4.39497 30.9364 2.35228C31.7355 1.35539 32.7489 0.55138 33.9015 0L36.0368 0ZM39.3958 18.1617H39.3768C39.3768 16.0264 39.4415 13.8872 39.3616 11.7557C39.255 8.90099 38.2006 6.38504 36.3584 4.21736C35.2336 2.89468 34.6589 2.92132 33.5303 4.28397C31.6272 6.57916 30.6014 9.23214 30.5652 12.2067C30.5158 16.1196 30.5386 20.0344 30.55 23.9491C30.55 25.9969 30.2684 25.719 32.4265 25.7742C33.1383 25.7914 33.3514 25.5249 33.3419 24.8417C33.3096 22.8853 33.3134 20.9269 33.3419 18.9705C33.3705 16.2833 32.9613 16.7362 35.6504 16.6639C36.3908 16.643 36.6382 16.9189 36.6267 17.6421C36.5963 19.747 36.6058 21.8538 36.6267 23.9586C36.6401 25.9931 36.3584 25.7114 38.4195 25.778C39.2207 25.8028 39.4358 25.5021 39.4225 24.7446C39.3749 22.5503 39.3958 20.3636 39.3958 18.1617ZM42.8215 20.2894C42.5969 20.6415 42.6863 20.9745 42.6844 21.2885C42.6749 23.1555 42.6844 25.0225 42.6844 26.8876C42.6844 27.3367 42.6844 27.7859 42.4294 28.176C42.1211 28.6499 42.2962 28.8002 42.7967 28.7945C43.6855 28.785 44.5762 28.7622 45.4611 28.7945C46.1539 28.8269 46.2757 28.6042 46.0321 27.9743C45.1433 25.6905 44.3002 23.3744 43.4286 21.0754C43.3068 20.7899 43.2268 20.4512 42.8215 20.2894ZM27.1815 20.1543C26.9588 20.3922 26.8199 20.4778 26.7723 20.5996C25.7865 23.1625 24.8076 25.7286 23.8357 28.2978C23.7406 28.5509 23.7558 28.7831 24.1174 28.785H27.6744C26.8598 25.9322 27.524 23.1098 27.1757 20.1543H27.1815ZM36.3508 35.3109C36.3717 34.209 35.8179 33.5543 34.9862 33.5467C34.1546 33.5391 33.5532 34.2242 33.6027 35.151C33.6945 36.3908 34.0591 37.595 34.6703 38.6775C34.8701 39.0582 35.0624 39.0867 35.2774 38.689C35.8583 37.6464 36.2233 36.4975 36.3508 35.3109Z" fill="white"/>
<path d="M34.9272 91.2232H23.3542C21.7118 91.2232 21.2151 90.7341 21.2113 89.1145C21.2113 86.473 21.1828 83.8333 21.2265 81.1917C21.2399 80.4438 20.9867 80.0327 20.3473 79.6426C12.3236 74.7604 7.63112 67.6674 6.26974 58.3636C6.19742 57.8688 5.99759 57.6689 5.53703 57.5224C2.15706 56.4433 0.0445695 53.6952 0.000797287 50.3723C-0.0448781 46.7792 1.87349 44.05 5.36004 42.8301C5.91195 42.6398 6.10798 42.3582 6.06991 41.7986C6.03185 41.2391 6.10988 40.6682 6.05279 40.1086C5.88341 38.4282 6.69985 37.2787 7.98447 36.3614C8.66775 35.886 9.40338 35.4907 10.1769 35.1833C12.4359 34.2489 14.8091 33.7274 17.1976 33.2516C17.8542 33.1203 18.1663 33.2992 18.2786 33.9977C18.6421 36.2396 18.6592 36.2396 16.4401 36.7153C14.4647 37.1378 12.5101 37.6269 10.6869 38.5271C10.3435 38.699 10.0156 38.9002 9.70682 39.1285C9.29383 39.4349 9.32619 39.7642 9.74488 40.0554C10.2863 40.4217 10.8712 40.7189 11.4863 40.9403C14.8167 42.1812 18.2957 42.7559 21.7975 43.2108C27.5773 43.9625 33.3914 44.1033 39.2017 43.8959C45.4002 43.6751 51.5721 43.1518 57.5404 41.26C58.31 41.0344 59.0503 40.7189 59.7461 40.3199C60.8157 39.6766 60.8195 39.3683 59.7461 38.7612C58.5182 38.0965 57.2085 37.5955 55.8504 37.2711C54.5867 36.9513 53.3135 36.6602 52.0346 36.4146C51.4941 36.31 51.3551 36.0892 51.4484 35.5697C51.9642 32.7149 51.418 32.9985 54.2593 33.5637C56.0052 33.897 57.7184 34.3836 59.3788 35.0177C60.2081 35.3409 61.0047 35.7424 61.7577 36.2167C63.2612 37.1683 64.1367 38.5005 63.952 40.2932C63.7903 41.8633 64.2166 42.7293 65.8133 43.3973C68.5881 44.5582 70.1487 47.4548 69.9888 50.3818C69.7985 53.7789 68.0533 56.1845 64.8256 57.3701C64.0548 57.6518 63.7503 57.9715 63.6133 58.8203C62.1345 67.9002 57.4738 74.879 49.589 79.6559C48.942 80.048 48.6984 80.4533 48.7098 81.1975C48.7536 83.7191 48.7269 86.2427 48.7269 88.7643C48.7269 90.8426 48.3463 91.2213 46.3137 91.2213L34.9272 91.2232ZM60.7262 49.9517C60.7262 48.1114 60.7262 46.2729 60.7262 44.4326C60.7262 43.4677 60.7262 43.4658 59.7937 43.8388C58.7505 44.2662 57.6821 44.6291 56.5945 44.9255C50.3884 46.5717 44.0338 46.9923 37.6544 47.194C32.4061 47.3497 27.1535 47.1144 21.9402 46.4899C17.9017 46.0141 13.8823 45.3899 10.0989 43.795C9.33761 43.4734 9.20439 43.6694 9.2101 44.4135C9.23674 47.706 9.17774 51.0003 9.23864 54.2928C9.24883 56.2508 9.45025 58.2032 9.84004 60.1221C12.6947 73.3394 25.4591 82.248 39.0913 80.1051C49.1494 78.5216 57.8106 70.5151 60.0259 60.5807C60.81 57.0637 60.7414 53.5087 60.7262 49.9517ZM34.9291 88.0621C38.1302 88.0621 41.3332 88.0488 44.5343 88.0735C45.2175 88.0735 45.4973 87.8699 45.4859 87.1619C45.4497 85.6508 45.4592 84.1378 45.4859 82.6248C45.4954 81.9397 45.3184 81.7322 44.6028 81.9854C38.193 84.2596 31.7699 84.2273 25.3602 81.9854C24.6293 81.7284 24.4771 81.953 24.4866 82.6286C24.5094 84.1112 24.5304 85.5937 24.4866 87.0744C24.46 87.8661 24.7473 88.0925 25.5181 88.083C28.6431 88.0431 31.7833 88.064 34.9291 88.0621ZM6.0604 50.1553C6.0604 48.9982 6.05088 47.843 6.0604 46.6878C6.0604 46.1816 5.92337 46.0198 5.44568 46.3072C3.99549 47.1598 3.2133 48.4634 3.18666 50.1001C3.16001 51.7825 3.96314 53.1071 5.42285 53.9978C5.87008 54.2699 6.0642 54.1576 6.0585 53.6267C6.05088 52.4657 6.0604 51.3105 6.0604 50.1553ZM63.9844 50.1782C63.9844 51.301 63.9844 52.4239 63.9844 53.5467C63.9844 54.1538 64.2394 54.2109 64.6828 53.9102C65.9922 53.0253 66.763 51.8053 66.7763 50.2105C66.7896 48.6157 66.1064 47.3558 64.7875 46.4594C64.247 46.0902 63.9844 46.233 63.9901 46.8971C63.992 47.9915 63.9844 49.0839 63.9844 50.1782Z" fill="white"/>
<path d="M60.7281 17.4632C60.7281 16.4584 60.7433 15.4516 60.7281 14.4468C60.7167 13.9025 60.8956 13.6265 61.4894 13.6379C64.3993 13.6912 63.9482 13.2135 63.9863 16.0092C64.0053 17.4594 63.973 18.9096 63.9958 20.3579C63.9958 21.0792 63.7884 21.4389 62.9814 21.4199C60.317 21.359 60.7814 21.6996 60.7357 19.2389C60.711 18.6508 60.7262 18.0551 60.7281 17.4632Z" fill="white"/>
<path d="M6.06612 17.4594C6.06612 16.4222 6.06612 15.3831 6.06612 14.3458C6.06612 13.8701 6.24501 13.6169 6.74364 13.6455C6.80264 13.6455 6.86163 13.6455 6.92063 13.6455C9.68399 13.6816 9.17585 13.2972 9.21772 15.8417C9.24437 17.3833 9.20059 18.9248 9.23295 20.4663C9.24627 21.142 9.02931 21.4312 8.32134 21.4179C5.62078 21.3722 6.11941 21.6939 6.06802 19.2407C6.0547 18.6469 6.06802 18.0551 6.06802 17.4613L6.06612 17.4594Z" fill="white"/>
<path d="M19.8848 12.2125C19.8848 12.9738 19.8696 13.7522 19.8848 14.521C19.8981 15.0711 19.6945 15.347 19.114 15.3432C16.1509 15.3223 16.6552 15.6782 16.6114 13.0594C16.5943 12.0222 16.6247 10.985 16.6114 9.9497C16.6 9.33308 16.8017 9.02478 17.4831 9.03619C20.3492 9.08568 19.8315 8.70505 19.8867 11.3314C19.8924 11.6207 19.8867 11.9156 19.8848 12.2125Z" fill="white"/>
<path d="M53.3306 12.1953C53.3306 12.9946 53.3306 13.7939 53.3306 14.5932C53.3306 15.1166 53.0908 15.345 52.5693 15.3431C49.5243 15.3259 50.1086 15.6609 50.0553 13.0593C50.0344 11.9935 50.0705 10.9259 50.0553 9.86012C50.042 9.24921 50.2989 9.01322 50.9022 9.02274C53.7569 9.0608 53.2887 8.68588 53.3363 11.297C53.3363 11.592 53.3363 11.8889 53.3363 12.1858L53.3306 12.1953Z" fill="white"/>
<path d="M44.0014 38.002C44.0014 37.2026 44.0128 36.4033 44.0014 35.604C43.9919 35.0787 44.2241 34.8428 44.7474 34.8542C47.724 34.8789 47.2215 34.5021 47.2691 37.1227C47.2862 38.1885 47.2577 39.2542 47.2691 40.32C47.2786 40.9195 47.0293 41.1745 46.4203 41.1669C43.5123 41.1326 44.0528 41.4714 43.9957 38.8831C43.9957 38.5862 43.9957 38.2893 43.9957 37.9944L44.0014 38.002Z" fill="white"/>
<path d="M25.9463 37.9924C25.9463 38.7308 25.9178 39.4711 25.9463 40.2077C25.9787 40.8757 25.756 41.1821 25.0442 41.1706C22.3798 41.125 22.7034 41.4809 22.6805 38.8869C22.6805 37.8535 22.6976 36.8182 22.6805 35.7848C22.6653 35.1225 22.8956 34.8199 23.6074 34.8332C26.3955 34.8884 25.8911 34.5154 25.9463 37.0941C25.952 37.4005 25.9463 37.6974 25.9463 37.9924Z" fill="white"/>
<path d="M19.8867 19.7927C19.8744 19.9987 19.8744 20.2052 19.8867 20.4112C19.9781 21.1953 19.6241 21.4484 18.8609 21.4275C16.326 21.3609 16.6533 21.7872 16.6019 19.1437C16.5867 18.3673 16.8836 18.0513 17.6448 18.1332C17.8509 18.1436 18.0573 18.1436 18.2634 18.1332C19.8867 18.1294 19.8867 18.1294 19.8867 19.7927Z" fill="white"/>
<path d="M53.3325 19.8155C53.3325 20.082 53.323 20.3484 53.3325 20.6148C53.3515 21.1725 53.0984 21.418 52.5332 21.4085C49.6404 21.3628 50.1029 21.8195 50.0591 18.9344C50.0591 18.3634 50.2989 18.1179 50.8546 18.1389C51.1211 18.1389 51.3875 18.1389 51.6539 18.1389C53.3363 18.1293 53.3363 18.1293 53.3325 19.8155Z" fill="white"/>
<path d="M62.3743 27.4699C60.4997 27.4604 60.7414 27.5936 60.7281 25.6733C60.7281 24.1946 60.7281 24.1946 62.441 24.1946C63.9844 24.1946 63.9844 24.1946 63.9825 25.9683C63.9806 27.4699 63.9806 27.4699 62.3743 27.4699Z" fill="white"/>
<path d="M6.0623 25.7952C6.0623 25.5287 6.08133 25.2623 6.0623 24.9978C6.01853 24.4268 6.29068 24.1927 6.84449 24.1984C9.67446 24.2289 9.17203 23.8178 9.21961 26.7715C9.21961 27.2568 9.00646 27.4776 8.52687 27.4642C8.26043 27.4642 7.99399 27.4642 7.72945 27.4642C5.86057 27.4623 6.07943 27.5956 6.0623 25.7952Z" fill="white"/>
<path d="M38.646 9.63367C38.2977 10.3036 37.898 11.0934 37.4774 11.8699C37.3766 12.0602 37.1691 12.0221 36.9979 11.9536C36.802 11.8867 36.6148 11.7966 36.4402 11.6853C35.4582 10.9754 34.4895 10.9906 33.5132 11.6853C32.8642 12.1515 32.4665 12.0221 32.103 11.259C31.1514 9.25495 31.1514 9.35581 33.0431 8.27293C34.4039 7.49264 35.6124 7.40319 36.9122 8.28815C37.3423 8.54386 37.7872 8.77391 38.2444 8.97709C38.4576 9.09128 38.6897 9.19214 38.646 9.63367Z" fill="white"/>
<path d="M39.6432 58.2189C39.6432 59.5511 39.6604 60.8833 39.6432 62.2155C39.6014 64.8799 37.5155 66.9886 34.9824 66.9734C32.4018 66.9487 30.3464 64.8799 30.3159 62.2155C30.2836 59.4883 30.3159 56.7573 30.295 54.032C30.295 53.2974 30.5557 53.031 31.2827 53.0405C34.008 53.0805 33.5532 52.7969 33.5798 55.2843C33.6046 57.5091 33.5798 59.7338 33.5893 61.9586C33.5893 63.1119 34.107 63.7133 35.0243 63.6886C35.9017 63.6638 36.3565 63.091 36.366 61.9567C36.3774 59.3456 36.3946 56.7345 36.3565 54.1253C36.3451 53.3146 36.6191 53.0215 37.4337 53.0367C40.0391 53.0862 39.6109 52.8274 39.6451 55.193C39.6565 56.2016 39.6432 57.2103 39.6432 58.2189Z" fill="white"/>
<path d="M34.9653 74.5308C32.2381 74.5308 29.6765 73.9199 27.4098 72.3384C25.8207 71.227 24.7112 69.7787 24.3458 67.828C24.1726 66.905 24.2735 66.766 25.1794 66.7394C25.4458 66.7394 25.716 66.7622 25.9806 66.7394C26.8979 66.6347 27.5031 66.8117 27.76 67.8965C27.9998 68.9147 28.881 69.5579 29.7945 70.028C33.2201 71.7884 36.6743 71.8055 40.1038 70.0547C41.2457 69.4837 42.1516 68.6349 42.4161 67.2894C42.4247 67.2303 42.4414 67.1727 42.4656 67.1181C42.635 66.7736 44.7018 66.5243 45.3203 66.8003C45.9388 67.0762 45.6571 67.6072 45.562 68.0373C45.0767 70.2469 43.6588 71.7389 41.7747 72.8428C39.6794 74.0684 37.3766 74.5385 34.9653 74.5308Z" fill="white"/>
<path d="M18.5812 54.8486C16.5372 54.8486 16.3316 54.5326 17.0111 52.9454C17.7818 51.145 19.6755 49.9156 21.5044 50.0393C22.5182 50.0988 23.4861 50.4823 24.2656 51.1333C25.045 51.7842 25.5948 52.6683 25.834 53.6553C26.0719 54.6259 25.9235 54.8257 24.9357 54.8467C24.5551 54.8467 24.165 54.8352 23.7805 54.8467C23.2096 54.8714 22.8137 54.7458 22.5397 54.1216C22.0791 53.0748 20.6746 52.9378 20.2141 53.9427C19.7535 54.9475 19.0455 54.86 18.5812 54.8486Z" fill="white"/>
<path d="M51.4256 54.8486C50.8889 54.8657 50.1771 54.9571 49.7413 53.9294C49.3378 52.9778 47.8686 53.0806 47.4575 54.0645C47.153 54.7782 46.6963 54.8828 46.0701 54.8505C45.8037 54.8372 45.5354 54.8505 45.2689 54.8505C43.9691 54.8505 43.853 54.6944 44.186 53.4669C44.7303 51.4477 46.7039 49.967 48.7536 50.0412C49.7839 50.0827 50.7728 50.4577 51.5716 51.1099C52.3703 51.762 52.9355 52.656 53.1822 53.6572C53.422 54.7154 53.3268 54.8353 52.2306 54.8486H51.4256Z" fill="white"/>
</svg>
