<svg width="70" height="70" viewBox="0 0 70 70" fill="none" xmlns="http://www.w3.org/2000/svg">
<path d="M69.9982 19.578C69.4727 21.0029 68.5696 22.0373 66.986 22.2052C64.6143 22.4551 62.9723 20.908 62.9029 18.4322C62.8737 17.1551 62.9029 15.8908 62.9029 14.5681C62.4888 14.6137 62.2972 14.8892 62.0801 15.0844C57.1833 19.4831 52.0767 23.6228 46.8333 27.6001C39.4662 33.1865 31.8491 38.4117 24.0278 43.3523C17.9524 47.197 11.7681 50.8617 5.47504 54.3463C3.40977 55.4866 1.07449 54.6985 0.251666 52.6113C-0.423376 50.9036 0.28998 49.0883 2.02685 48.094C4.59566 46.6235 7.17724 45.1749 9.72963 43.6843C20.0326 37.6736 30.0076 31.1176 39.6121 24.0442C45.6127 19.6054 51.4509 14.9622 57.0319 9.98509C57.1596 9.87015 57.3475 9.80264 57.3749 9.47972C56.8531 9.47972 56.3422 9.49066 55.8314 9.47972C54.9447 9.45782 54.058 9.53992 53.1732 9.39762C51.232 9.08381 50.026 7.53851 50.1537 5.50244C50.2632 3.75462 51.7957 2.33703 53.6494 2.33156C57.7233 2.31879 61.7991 2.37717 65.8731 2.30602C67.9128 2.27136 69.2812 3.06316 70 4.96788L69.9982 19.578ZM60.1462 4.82192C59.3964 4.82192 58.6447 4.82192 57.8948 4.82192C56.5064 4.82192 55.118 4.8055 53.7296 4.83652C52.8776 4.85659 52.3978 5.55535 52.6952 6.26688C52.9342 6.83245 53.4031 6.97841 53.9723 6.97476C56.1799 6.97476 58.3856 6.97476 60.5932 6.97476C61.2171 6.97476 61.728 7.15721 61.9615 7.77934C62.195 8.40147 61.936 8.874 61.4817 9.29727C59.1999 11.4209 56.8671 13.4886 54.4831 15.5004C43.7372 24.5368 32.318 32.6501 20.4373 40.1084C14.8302 43.6357 9.13243 47.0054 3.34409 50.2176C2.58695 50.6391 2.32788 51.2995 2.67817 51.8925C2.9792 52.4051 3.68709 52.5091 4.38402 52.1406C4.44423 52.1096 4.50261 52.0713 4.56647 52.0384C10.4485 48.7544 16.252 45.3446 21.9479 41.7486C36.5088 32.5425 50.4548 22.5135 63.1054 10.7659C63.5616 10.3409 64.0377 10.1 64.6416 10.3427C65.2455 10.5853 65.4061 11.1181 65.4024 11.7347C65.3915 13.7142 65.4024 15.6938 65.4024 17.6733C65.4024 18.0144 65.386 18.3593 65.4188 18.6968C65.4754 19.3116 65.9096 19.7787 66.4533 19.7805C67.0572 19.7805 67.4275 19.4466 67.548 18.8683C67.5918 18.6688 67.6138 18.465 67.6136 18.2607C67.6136 14.2798 67.6136 10.2983 67.6136 6.31614C67.6136 5.19411 67.2487 4.84017 66.145 4.83469C64.1454 4.81645 62.144 4.82192 60.1407 4.82192H60.1462Z" fill="white"/>
<path d="M59.7558 69.9709C57.8583 69.2411 57.0902 67.8783 57.0957 65.8422C57.1377 53.436 57.1578 41.0426 57.0829 28.6419C57.0684 26.0128 58.7505 24.2523 61.343 24.4456C62.6329 24.5387 63.9355 24.4566 65.2327 24.4639C67.3016 24.4785 68.7977 25.9107 68.9217 27.9869C68.9382 28.2587 68.9217 28.5342 68.9217 28.8042C68.9217 41.1137 68.9035 53.4232 68.94 65.7327C68.94 67.7706 68.1993 69.1991 66.3037 69.98L59.7558 69.9709ZM59.6207 47.1946C59.6207 53.4974 59.6207 59.8015 59.6207 66.1067C59.6207 67.2251 59.971 67.5809 61.0803 67.5918C62.3994 67.6028 63.7203 67.6137 65.0393 67.5918C66.0136 67.5717 66.404 67.1576 66.404 66.1979C66.404 53.5667 66.404 40.9349 66.404 28.3025C66.404 27.3283 66.0628 26.9834 65.0941 26.9725C63.817 26.9597 62.5398 26.9725 61.2627 26.9725C59.8032 26.9725 59.6062 27.175 59.6043 28.6327C59.6141 34.8164 59.6195 41.0037 59.6207 47.1946Z" fill="white"/>
<path d="M45.8262 69.971C43.7791 69.1062 43.0895 68.0662 43.0895 65.824C43.0895 56.135 43.0895 46.446 43.0895 36.757C43.0895 35.5328 43.3285 34.4053 44.2973 33.5478C44.8938 32.9726 45.6872 32.6464 46.5158 32.6356C48.176 32.6356 49.8363 32.6156 51.4965 32.6356C52.3958 32.6395 53.2569 32.9992 53.8918 33.6361C54.5266 34.273 54.8836 35.1353 54.8845 36.0346C54.8991 46.2234 54.8991 56.4129 54.8845 66.603C54.8845 68.3527 53.8117 69.3762 52.2518 69.96L45.8262 69.971ZM52.469 51.3617C52.469 46.4697 52.469 41.5772 52.469 36.6841C52.469 35.4891 52.0548 35.0713 50.8762 35.064C49.5991 35.064 48.322 35.064 47.054 35.064C46.0123 35.0731 45.5945 35.4854 45.5945 36.5126C45.5945 46.3645 45.5945 56.2165 45.5945 66.0685C45.5945 67.1869 45.9867 67.5773 47.1233 67.5901C48.26 67.6028 49.3984 67.5901 50.5369 67.5901C52.146 67.5901 52.4671 67.2726 52.4671 65.689C52.4696 60.9138 52.4702 56.1368 52.469 51.358V51.3617Z" fill="white"/>
<path d="M31.7597 69.9709C29.8313 69.221 29.0942 67.7925 29.1088 65.7528C29.1599 59.1319 29.127 52.5128 29.1289 45.8919C29.1289 43.4015 30.5884 41.9383 33.0587 41.9347C34.3966 41.9347 35.7388 41.9347 37.0852 41.9347C39.457 41.9347 40.9421 43.4289 40.9439 45.8262C40.9439 52.469 40.9129 59.1118 40.964 65.7546C40.9804 67.7943 40.2452 69.221 38.3149 69.9709H31.7597ZM38.4299 56.0449C38.4299 52.6077 38.4299 49.1722 38.4299 45.7368C38.4299 44.7918 38.0905 44.4597 37.1528 44.4451C35.81 44.4342 34.469 44.4451 33.1262 44.4451C31.9257 44.4451 31.6429 44.7297 31.6411 45.9393C31.6411 52.6508 31.6411 59.363 31.6411 66.0757C31.6411 67.2032 32.006 67.579 33.1554 67.5918C34.3833 67.6082 35.6129 67.6046 36.8408 67.5918C38.0686 67.579 38.428 67.2269 38.4299 66.01C38.4335 62.6871 38.4335 59.3654 38.4299 56.0449Z" fill="white"/>
<path d="M17.8301 69.971C15.9108 69.2722 15.1263 67.9021 15.1609 65.8642C15.2285 61.8869 15.1755 57.9078 15.1828 53.9287C15.1828 51.5277 16.5931 50.1229 18.9923 50.1138C20.3788 50.1138 21.7654 50.1138 23.152 50.1138C25.4289 50.1229 26.9286 51.4711 26.9632 53.7535C27.0271 57.9589 27.0089 62.1642 26.9632 66.3695C26.9468 68.194 25.9562 69.3762 24.2448 69.9673L17.8301 69.971ZM24.4784 60.077C24.4784 58.03 24.4784 55.9812 24.4784 53.9323C24.4784 52.9873 24.0551 52.5567 23.1009 52.5457C21.7599 52.5275 20.4153 52.5293 19.0744 52.5457C18.0363 52.5585 17.6148 52.969 17.6148 54.0053C17.6039 58.0568 17.6039 62.1076 17.6148 66.1579C17.6148 67.1413 18.0563 67.5737 19.0452 67.5901C20.3643 67.612 21.6851 67.6083 23.006 67.5901C24.1007 67.5755 24.4784 67.1741 24.482 66.0849C24.4838 64.0835 24.4784 62.0803 24.4784 60.077Z" fill="white"/>
<path d="M3.76369 69.9709C1.8608 69.1919 1.05075 67.7633 1.13102 65.7254C1.19488 64.1363 1.13102 62.5418 1.14744 60.949C1.16204 58.5627 2.65078 57.0958 5.04627 57.0904C6.48028 57.0904 7.91246 57.0812 9.34647 57.0904C11.4464 57.1068 12.9406 58.6101 12.9552 60.721C12.9662 62.4268 12.9005 64.1363 12.9716 65.8385C13.0592 67.8764 12.2163 69.2429 10.3189 69.9673L3.76369 69.9709ZM10.4521 63.5854C10.4521 62.6731 10.463 61.7609 10.4521 60.8597C10.4411 59.9584 10.1127 59.6081 9.22423 59.599C7.79266 59.5844 6.36169 59.5844 4.93133 59.599C4.00816 59.599 3.66882 59.9639 3.66517 60.8943C3.65544 62.6665 3.65544 64.438 3.66517 66.2089C3.66517 67.1211 4.03005 67.5499 4.90761 67.5754C6.35986 67.6156 7.81273 67.6156 9.2662 67.5754C10.0963 67.5535 10.4357 67.1521 10.4503 66.3093C10.4649 65.4025 10.4521 64.4939 10.4521 63.5854Z" fill="white"/>
<path d="M0.0290949 16.336C0.0352285 13.1013 0.999706 9.94101 2.80074 7.2541C4.60177 4.56719 7.15858 2.4742 10.1483 1.23942C13.1381 0.00464428 16.4266 -0.316545 19.5988 0.316412C22.7709 0.949369 25.6844 2.50809 27.9713 4.79574C30.2582 7.08339 31.8159 9.99738 32.4478 13.1697C33.0797 16.3421 32.7574 19.6306 31.5217 22.6199C30.2859 25.6092 28.192 28.1653 25.5045 29.9655C22.817 31.7656 19.6564 32.729 16.4217 32.7341C14.2645 32.7486 12.1258 32.3344 10.1301 31.5154C8.13429 30.6964 6.32115 29.489 4.79598 27.9633C3.27081 26.4376 2.06401 24.6241 1.24568 22.628C0.427354 20.632 0.0138179 18.4932 0.0290949 16.336ZM16.3779 30.2291C23.9785 30.3641 30.3495 23.9494 30.2747 16.305C30.2554 12.6213 28.7771 9.09531 26.1636 6.49922C23.55 3.90313 20.0142 2.4485 16.3305 2.45386C8.76269 2.45386 2.49939 8.65695 2.49209 16.2831C2.48297 24.504 9.18413 30.3459 16.3779 30.2291Z" fill="white"/>
<path d="M15.1792 20.8333C15.1792 19.9211 15.161 19.0089 15.1792 18.0967C15.192 17.657 15.0187 17.4545 14.6118 17.3103C12.2255 16.4711 10.8407 14.8036 10.5251 12.2694C10.1985 9.65499 11.8606 7.05699 14.4403 6.14659C14.8399 6.00611 15.1537 5.86745 15.2923 5.39127C15.431 4.9151 15.8798 4.6615 16.4107 4.6615C16.9125 4.6615 17.3394 4.8932 17.4762 5.36573C17.6222 5.86745 17.9542 6.01158 18.3884 6.16301C20.7018 6.97854 22.2854 9.20253 22.2763 11.5761C22.2763 12.357 21.822 12.8842 21.1251 12.9226C20.4281 12.9609 19.9191 12.4993 19.848 11.7093C19.733 10.4815 19.2441 9.48349 18.1786 8.80663C17.8137 8.57857 17.6076 8.54756 17.6112 9.08759C17.624 10.9759 17.6331 12.866 17.6112 14.7543C17.6112 15.2724 17.9414 15.3253 18.2863 15.4421C22.0154 16.7192 23.5078 21.1818 21.2601 24.3819C20.545 25.4534 19.4825 26.2459 18.2516 26.6259C18.0765 26.6592 17.9146 26.742 17.7853 26.8646C17.6559 26.9872 17.5645 27.1443 17.5218 27.3174C17.374 27.8191 16.9508 28.0745 16.4272 28.08C15.867 28.08 15.4347 27.8082 15.2851 27.2791C15.1719 26.8832 14.9457 26.75 14.5991 26.635C13.4625 26.2737 12.4638 25.573 11.7374 24.6271C11.0111 23.6812 10.5918 22.5355 10.536 21.3442C10.4813 20.4666 10.9009 19.8846 11.6398 19.8226C12.3787 19.7606 12.8987 20.2422 12.979 21.1161C13.0903 22.3221 13.612 23.2799 14.6501 23.9404C15.0461 24.1903 15.2157 24.1374 15.1975 23.6375C15.1683 22.6997 15.1792 21.7656 15.1792 20.8333ZM15.1792 11.7476C15.1792 10.8847 15.1683 10.0199 15.1792 9.15692C15.1792 8.68256 15.0698 8.491 14.6082 8.79203C13.5464 9.49809 12.9425 10.4906 12.9662 11.7604C12.9693 12.3448 13.1273 12.918 13.4241 13.4215C13.7208 13.925 14.1458 14.3408 14.6556 14.6266C15.0205 14.8492 15.1811 14.7944 15.1719 14.3329C15.1683 13.4754 15.1811 12.6124 15.1792 11.7476ZM17.6057 21.0358C17.6057 21.9225 17.6057 22.8092 17.6057 23.6941C17.6057 24.1082 17.7553 24.1794 18.0947 23.975C19.1894 23.3091 19.8042 22.313 19.8078 21.0559C19.8225 20.4596 19.6749 19.8706 19.3809 19.3516C19.0869 18.8327 18.6575 18.4034 18.1385 18.1094C17.7079 17.8467 17.5911 17.9945 17.6021 18.447C17.6185 19.3081 17.6057 20.1711 17.6057 21.0358Z" fill="white"/>
</svg>
