<svg width="70" height="72" viewBox="0 0 70 72" fill="none" xmlns="http://www.w3.org/2000/svg">
<path d="M54.5597 0C56.4749 0.549482 57.9593 1.61484 58.8172 3.47083C59.2994 4.51247 59.3587 5.60748 59.3192 6.72423C59.3249 6.78779 59.3166 6.85183 59.295 6.91185C59.2733 6.97186 59.2387 7.0264 59.1937 7.07162C59.1486 7.11683 59.0942 7.15164 59.0343 7.17358C58.9744 7.19552 58.9104 7.20406 58.8468 7.1986L58.6393 7.21046C56.8861 7.30534 56.8861 7.30534 56.7675 5.58178C56.7163 4.83656 56.4153 4.13037 55.9132 3.57732C55.411 3.02427 54.7371 2.65668 54.0003 2.53394C53.614 2.46418 53.2227 2.42584 52.8302 2.4193C37.3933 2.4193 21.9558 2.4193 6.51758 2.4193C5.6301 2.4193 4.7624 2.53987 4.01328 3.08342C3.55207 3.39641 3.17707 3.82047 2.92283 4.3165C2.6686 4.81253 2.54332 5.36457 2.55854 5.92175C2.55854 8.67179 2.55854 11.4218 2.55854 14.1719C2.55854 23.8787 2.57238 33.5856 2.54273 43.2924C2.54273 45.0496 3.13569 46.3482 4.79798 47.0479C4.85726 47.0648 4.91233 47.0939 4.95965 47.1335C5.00696 47.173 5.04546 47.222 5.07265 47.2773C5.09985 47.3326 5.11514 47.393 5.11753 47.4546C5.11993 47.5162 5.10937 47.5776 5.08655 47.6349C5.00947 47.9255 4.94029 48.218 4.86518 48.5085C4.55881 49.6945 4.50347 49.736 3.39858 49.1687C1.26192 48.0757 0.0384369 46.3027 0.0384369 43.9071C-0.00504727 31.2229 -0.0116358 18.5368 0.0186714 5.84862C0.0218251 4.64837 0.391212 3.47767 1.07747 2.49297C1.76373 1.50826 2.73417 0.756444 3.85911 0.33799C4.15757 0.221374 4.46394 0.112663 4.76635 0H54.5597Z" fill="white"/>
<path d="M30.9715 35.5147C31.6929 34.821 32.2978 34.2221 32.9204 33.6449C33.1793 33.4038 33.1536 33.1093 33.1536 32.8108C33.1536 30.439 33.1793 28.0513 33.1418 25.6715C33.1299 24.9639 33.3572 24.7445 34.0529 24.7702C35.8615 24.8354 35.6935 24.5172 35.7014 26.387C35.7014 27.8655 35.7014 29.3519 35.7014 30.8244C35.7014 31.615 35.7014 31.5379 36.4802 31.2968C37.6938 30.9193 38.0456 30.1721 37.8934 28.9763C37.7946 28.2035 37.8934 27.4069 37.8697 26.6222C37.8519 26.1083 38.0673 25.9206 38.5654 25.9245C40.7693 25.9443 40.3918 25.7269 40.4254 27.6718C40.452 28.1794 40.452 28.6881 40.4254 29.1957C40.3759 29.7729 40.623 29.8756 41.1191 29.765C41.3866 29.692 41.6622 29.6529 41.9394 29.6483C42.4632 29.6602 42.6134 29.4092 42.6094 28.9229C42.5936 26.8884 42.5936 24.8545 42.6094 22.8213C42.6193 21.0227 42.3723 21.2085 44.2441 21.2025C45.1375 21.2025 45.1592 21.2282 45.1612 22.1533C45.1612 24.3709 45.175 26.5906 45.1612 28.8083C45.1612 29.3756 45.2995 29.6286 45.9261 29.6622C47.3413 29.7373 47.3393 29.7729 47.3393 28.3418C47.3393 25.4758 47.3393 22.6098 47.3393 19.7438C47.3393 18.8741 47.3749 18.8346 48.2347 18.8386C50.1539 18.8386 49.8792 18.6409 49.8871 20.5048C49.9009 23.6001 49.9089 26.6973 49.8753 29.7946C49.8753 30.4231 50.0729 30.7374 50.6481 30.9805C52.0791 31.5735 52.0653 31.6091 52.0653 30.0772C52.0653 28.2325 52.0653 26.3837 52.0653 24.531C52.0653 23.6238 52.1206 23.5645 52.9883 23.5645C54.8937 23.5645 54.5953 23.4123 54.6051 25.1932C54.621 27.714 54.621 30.2334 54.6051 32.7515C54.5888 32.9678 54.6263 33.1848 54.7143 33.3831C54.8022 33.5814 54.9379 33.7549 55.1092 33.888C55.6764 34.3525 56.2042 34.8625 56.7556 35.3606C56.8841 35.2123 56.7932 34.9495 56.7932 34.7103C56.7932 32.8622 56.8189 31.0122 56.7932 29.1641C56.7813 28.5 57.0225 28.2707 57.6807 28.2825C59.6671 28.3181 59.3232 28.1659 59.3331 29.8855C59.3508 33.0282 59.3331 36.171 59.3331 39.3157C59.3265 39.7306 59.3934 40.1435 59.5307 40.5352C60.3391 42.8023 60.7463 45.1287 60.4419 47.5421C60.3648 48.1449 60.521 48.477 61.1989 48.4276C61.531 48.4038 61.7069 48.5975 61.6871 48.9454C61.6871 49.0838 61.6871 49.2241 61.6871 49.3625C61.6871 50.8113 61.6871 50.8251 60.2502 50.9437C59.8667 50.9753 59.7343 51.1809 59.6394 51.4853C59.3981 52.2576 59.0817 53.0043 58.6946 53.7148C58.497 54.0924 58.5345 54.3295 58.833 54.6181C59.76 55.5194 60.6672 56.4445 61.5824 57.3596C64.1479 59.9252 66.7135 62.4907 69.2791 65.0563C70.2377 66.0169 70.2397 66.5506 69.2889 67.5052C68.3382 68.4599 67.3638 69.4383 66.3973 70.3989C65.4782 71.3101 64.8931 71.3121 63.9839 70.3989C60.6316 67.052 57.284 63.6997 53.941 60.3422C53.5101 59.9054 53.2275 59.9034 52.7254 60.2236C43.7124 65.9378 31.6989 61.7436 28.2024 51.6612C28.0047 51.09 27.726 50.9338 27.1568 50.9358C22.3735 50.9556 17.5902 50.9477 12.805 50.9477C11.8365 50.9477 11.8167 50.9477 11.8325 49.993C11.8325 48.3268 11.6191 48.4117 13.3861 48.4117C17.7543 48.4117 22.1225 48.4117 26.4907 48.4117C27.3366 48.4117 27.4177 48.3307 27.3208 47.4927C27.048 45.1485 27.4256 42.8893 28.1944 40.6834C28.3647 40.2057 28.4509 39.7022 28.4494 39.1951C28.4494 35.4752 28.4633 31.7534 28.4316 28.0335C28.4316 27.3219 28.651 27.1085 29.3428 27.1361C31.1217 27.2014 30.9735 26.8673 30.9794 28.7628C30.9794 30.7275 30.9794 32.6903 30.9794 34.6549L30.9715 35.5147ZM43.9318 32.0597C36.1204 32.0419 29.7915 38.276 29.7658 46.0122C29.7381 53.867 36.0236 60.2632 43.7993 60.2869C51.6028 60.3106 57.9732 54.0153 57.9969 46.2534C58.0107 38.3768 51.7747 32.0755 43.9318 32.0597ZM56.9572 56.4543C56.8802 56.5354 56.7853 56.6303 56.6963 56.7311C56.438 57.0566 56.1608 57.3668 55.8662 57.66C55.4135 58.0554 55.4432 58.3419 55.878 58.7709C58.5602 61.4115 61.2147 64.0838 63.8712 66.7463C65.241 68.116 65.2311 68.1081 66.5574 66.6791C66.842 66.3707 66.844 66.1711 66.5574 65.8785C63.4924 62.8307 60.4347 59.7802 57.3842 56.7271C57.3357 56.6547 57.2727 56.5931 57.1992 56.5461C57.1257 56.4992 57.0434 56.4679 56.9572 56.4543Z" fill="white"/>
<path d="M36.828 9.3926C44.6868 9.3926 52.5449 9.3926 60.4024 9.3926C61.7921 9.3722 63.1447 9.84176 64.2228 10.7189C65.3009 11.5961 66.0357 12.8249 66.2984 14.1897C66.4223 14.8477 66.4793 15.5165 66.4684 16.186C66.479 28.2746 66.479 40.3619 66.4684 52.4478C66.4684 53.9737 66.251 55.4384 65.322 56.7231C65.0295 57.1283 64.7745 57.2588 64.4009 56.8437C64.2897 56.7316 64.1716 56.6266 64.0471 56.5294C63.1241 55.7388 63.1261 55.7388 63.6103 54.6675C63.835 54.1585 63.9475 53.6071 63.9404 53.0507C63.9404 40.5707 63.9404 28.0908 63.9404 15.6108C63.9404 13.3931 62.5015 11.9503 60.2996 11.9503C44.6321 11.9424 28.9633 11.9424 13.2932 11.9503C11.0538 11.9503 9.66033 13.3516 9.65835 15.5911C9.65835 28.0934 9.65835 40.5964 9.65835 53.1001C9.65835 55.2743 11.0834 56.7014 13.2616 56.7053C18.0211 56.7159 22.782 56.7159 27.5442 56.7053C28.5324 56.7053 28.5502 56.7053 28.5423 57.7055C28.5245 59.4567 28.7677 59.2511 26.9927 59.2531C22.5125 59.2637 18.0323 59.2637 13.5522 59.2531C9.65637 59.2531 7.11255 56.7172 7.11255 52.8313C7.11255 40.4897 7.11255 28.1488 7.11255 15.8085C7.11255 11.9226 9.6544 9.39062 13.5482 9.39062C21.3042 9.39063 29.0641 9.39128 36.828 9.3926Z" fill="white"/>
<path d="M21.4544 39.0685C21.4544 41.1894 21.4366 43.3122 21.4544 45.435C21.4544 46.028 21.2745 46.2533 20.6638 46.2256C18.6872 46.1663 18.9106 46.5023 18.9046 44.5199C18.8954 40.6221 18.8954 36.7237 18.9046 32.8246C18.9046 31.8739 18.9244 31.8521 19.8712 31.8581C21.6935 31.8679 21.4287 31.6723 21.4405 33.4531C21.4643 35.3309 21.4544 37.1987 21.4544 39.0685Z" fill="white"/>
<path d="M26.1724 40.8336C26.1724 42.3793 26.1546 43.9249 26.1823 45.4686C26.1823 46.0339 26.0083 46.2474 25.4312 46.2336C23.4012 46.1881 23.7294 46.4609 23.7155 44.5772C23.6977 41.81 23.7274 39.0429 23.6997 36.2757C23.6997 35.6471 23.8875 35.4277 24.5259 35.4475C26.4669 35.5108 26.1447 35.2004 26.1704 37.0999C26.1862 38.3451 26.1744 39.5864 26.1724 40.8336Z" fill="white"/>
<path d="M16.7324 42.6481C16.7324 43.6166 16.7205 44.5871 16.7324 45.5576C16.7324 46.0122 16.5921 46.2375 16.0979 46.2296C13.8545 46.1921 14.2064 46.5202 14.1826 44.4092C14.1648 42.8853 14.2024 41.3614 14.1688 39.8375C14.155 39.199 14.3408 38.9243 15.0286 38.9401C17.0229 38.9895 16.7008 38.7602 16.7284 40.6399C16.7423 41.31 16.7344 41.9781 16.7324 42.6481Z" fill="white"/>
<path d="M13.0994 14.1125C13.237 14.1214 13.375 14.1214 13.5125 14.1125C14.1747 14.0315 14.404 14.3102 14.3842 14.9763C14.3269 16.8876 14.6273 16.6287 12.6863 16.6801C12.0242 16.6979 11.7416 16.4666 11.8186 15.8064C11.8265 15.6682 11.8265 15.5296 11.8186 15.3914C11.8206 14.1125 11.8206 14.1125 13.0994 14.1125Z" fill="white"/>
<path d="M19.0944 15.4052C19.0845 15.5658 19.0845 15.7268 19.0944 15.8874C19.1675 16.5061 18.875 16.6899 18.2899 16.678C16.3134 16.6286 16.5782 16.9508 16.5387 14.8992C16.5268 14.2904 16.7699 14.0552 17.357 14.1204C17.4952 14.1283 17.6338 14.1283 17.7721 14.1204C19.0944 14.1125 19.0944 14.1125 19.0944 15.4052Z" fill="white"/>
<path d="M4.73278 5.89215C4.73278 4.48682 4.70116 4.6825 6.11637 4.67262C7.29044 4.67262 7.29044 4.67262 7.28847 6.03842C7.28847 7.21447 7.28847 7.21447 5.895 7.21249C4.73279 7.21051 4.73278 7.21051 4.73278 5.89215Z" fill="white"/>
<path d="M10.7336 4.67053C12.0124 4.67053 12.0124 4.67053 12.0124 5.9968C12.0124 7.21238 12.0124 7.21238 10.7474 7.21238C9.48242 7.21238 9.45673 7.21238 9.45673 5.86635C9.4587 4.67053 9.4587 4.67053 10.7336 4.67053Z" fill="white"/>
<path d="M15.4555 4.67059C16.8391 4.67059 16.7284 4.55199 16.7324 5.99092C16.7324 7.21243 16.7324 7.21243 15.4101 7.21243C14.1826 7.21243 14.1826 7.21243 14.1826 5.87233C14.1846 4.67059 14.1846 4.67059 15.4555 4.67059Z" fill="white"/>
<path d="M22.577 16.6682C21.2784 16.6682 21.2784 16.6682 21.2784 15.3894C21.2784 14.1106 21.2784 14.1126 22.6462 14.1126C24.014 14.1126 23.7985 14.1007 23.8124 15.5614C23.8223 16.6682 23.8124 16.6682 22.577 16.6682Z" fill="white"/>
<path d="M43.8428 58.0473C42.2772 58.051 40.7264 57.7447 39.2799 57.146C37.8333 56.5474 36.5196 55.6682 35.4145 54.5592C34.3094 53.4503 33.4348 52.1335 32.8412 50.6849C32.2476 49.2362 31.9467 47.6844 31.9558 46.1189C31.9242 39.531 37.3893 34.1963 43.9772 34.2299C50.4504 34.2615 55.8365 39.6951 55.8148 46.188C55.7933 49.3462 54.5215 52.3673 52.2778 54.59C50.034 56.8126 47.001 58.0558 43.8428 58.0473ZM37.8776 39.0626C37.749 39.12 37.6265 39.1902 37.5119 39.2721C35.0425 41.6439 34.0911 44.5172 34.6577 47.8918C34.7309 48.3286 35.0313 48.4117 35.4207 48.4117C41.0578 48.4117 46.6943 48.4117 52.3301 48.4117C52.8104 48.4117 53.0476 48.2338 53.1207 47.7554C53.6129 44.593 52.7392 41.8653 50.5512 39.5508C50.3891 39.3788 50.2448 39.1357 49.8792 39.1792C49.8792 40.9581 49.891 42.737 49.8792 44.5159C49.8614 46.4924 50.1598 46.1801 48.1438 46.2414C47.4816 46.2612 47.3156 45.9924 47.3215 45.3856C47.3433 43.0532 47.2978 40.7189 47.3492 38.3866C47.367 37.6138 47.1179 37.2125 46.3609 37.1097C46.2226 37.0919 46.0901 37.0504 45.9537 37.0208C45.2382 36.8607 45.1631 36.918 45.1631 37.6731C45.1631 40.0074 45.1631 42.3397 45.1631 44.672C45.1631 46.4509 45.345 46.2137 43.6135 46.2276C42.6153 46.2276 42.6134 46.2276 42.6114 45.2393C42.6114 42.7212 42.6114 40.203 42.6114 37.6849C42.6114 37.4457 42.7063 37.1532 42.4256 36.9931C41.8662 36.6709 40.449 37.4734 40.449 38.1158C40.449 40.3783 40.449 42.6421 40.449 44.9072C40.449 46.2374 40.449 46.2374 39.1524 46.2374C37.8973 46.2374 37.8973 46.2375 37.8973 45.01L37.8776 39.0626ZM43.8863 50.9456C41.438 50.9456 38.9884 50.9456 36.5374 50.9456C36.3615 50.9456 36.1303 50.8606 36.0216 51.0405C35.9129 51.2203 36.1046 51.3824 36.2054 51.5228C37.0672 52.7614 38.2158 53.7733 39.5532 54.4721C40.8907 55.1709 42.3773 55.5358 43.8863 55.5358C45.3953 55.5358 46.8819 55.1709 48.2193 54.4721C49.5567 53.7733 50.7053 52.7614 51.5671 51.5228C51.668 51.3804 51.8676 51.2322 51.7529 51.0405C51.6383 50.8487 51.413 50.9456 51.2371 50.9456C48.7796 50.943 46.3293 50.943 43.8863 50.9456Z" fill="white"/>
</svg>
