<svg width="24" height="25" viewBox="0 0 24 25" fill="none" xmlns="http://www.w3.org/2000/svg">
<path d="M11.999 7.87695C9.44501 7.87695 7.37601 9.94695 7.37601 12.5C7.37601 15.054 9.44501 17.124 11.999 17.124C14.551 17.124 16.622 15.054 16.622 12.5C16.622 9.94695 14.551 7.87695 11.999 7.87695ZM11.999 15.504C10.34 15.504 8.99501 14.159 8.99501 12.501C8.99501 10.842 10.34 9.49795 11.999 9.49795C13.658 9.49795 15.001 10.842 15.001 12.501C15.001 14.159 13.658 15.504 11.999 15.504Z" fill="#9685FF"/>
<path d="M16.806 8.78491C17.4014 8.78491 17.884 8.30227 17.884 7.70691C17.884 7.11154 17.4014 6.62891 16.806 6.62891C16.2106 6.62891 15.728 7.11154 15.728 7.70691C15.728 8.30227 16.2106 8.78491 16.806 8.78491Z" fill="#9685FF"/>
<path d="M20.533 6.61088C20.064 5.40188 19.109 4.44588 17.9 3.97888C17.201 3.71588 16.462 3.57488 15.714 3.55888C14.751 3.51688 14.446 3.50488 12.004 3.50488C9.56201 3.50488 9.24901 3.50488 8.29401 3.55888C7.54801 3.57388 6.80901 3.71488 6.11001 3.97888C4.90001 4.44588 3.94501 5.40188 3.47701 6.61088C3.21401 7.31088 3.07301 8.04888 3.05801 8.79688C3.01501 9.75888 3.00201 10.0639 3.00201 12.5069C3.00201 14.9489 3.00201 15.2599 3.05801 16.2169C3.07301 16.9649 3.21401 17.7029 3.47701 18.4039C3.94601 19.6119 4.90101 20.5679 6.11101 21.0359C6.80701 21.3079 7.54601 21.4619 8.29601 21.4859C9.25901 21.5279 9.56401 21.5409 12.006 21.5409C14.448 21.5409 14.761 21.5409 15.716 21.4859C16.463 21.4709 17.202 21.3289 17.902 21.0669C19.111 20.5979 20.066 19.6429 20.535 18.4339C20.798 17.7339 20.939 16.9959 20.954 16.2479C20.997 15.2859 21.01 14.9809 21.01 12.5379C21.01 10.0949 21.01 9.78488 20.954 8.82788C20.941 8.06988 20.801 7.31888 20.533 6.61088ZM19.315 16.1429C19.308 16.7189 19.204 17.2899 19.004 17.8309C18.699 18.6179 18.078 19.2399 17.292 19.5419C16.757 19.7409 16.193 19.8449 15.622 19.8529C14.672 19.8969 14.404 19.9079 11.968 19.9079C9.53001 19.9079 9.28101 19.9079 8.31301 19.8529C7.74401 19.8459 7.17801 19.7409 6.64401 19.5419C5.85501 19.2409 5.23001 18.6189 4.92501 17.8309C4.72901 17.2969 4.62301 16.7319 4.61401 16.1619C4.57101 15.2119 4.56101 14.9439 4.56101 12.5079C4.56101 10.0709 4.56101 9.82188 4.61401 8.85288C4.62101 8.27688 4.72501 7.70688 4.92501 7.16588C5.23001 6.37688 5.85501 5.75588 6.64401 5.45388C7.17801 5.25588 7.74401 5.15088 8.31301 5.14288C9.26401 5.09988 9.53101 5.08788 11.968 5.08788C14.405 5.08788 14.655 5.08788 15.622 5.14288C16.193 5.14988 16.757 5.25488 17.292 5.45388C18.078 5.75688 18.699 6.37888 19.004 7.16588C19.2 7.69988 19.306 8.26488 19.315 8.83488C19.358 9.78588 19.369 10.0529 19.369 12.4899C19.369 14.9259 19.369 15.1879 19.326 16.1439H19.315V16.1429Z" fill="#9685FF"/>
</svg>
