<svg width="40" height="41" viewBox="0 0 40 41" fill="none" xmlns="http://www.w3.org/2000/svg">
<path d="M16.8147 0.0206024C21.6146 0.0206024 26.4145 0.0538606 31.2134 0.000218309C32.6564 -0.0158744 33.5801 0.858495 33.5661 2.37335C33.5125 7.45435 33.55 12.5353 33.5393 17.6174C33.5361 18.0421 33.6541 18.459 33.8794 18.819C35.7419 21.9646 35.9886 25.2561 34.6572 28.6549C34.5371 28.9606 34.5725 29.1333 34.8031 29.3468C35.2323 29.7459 35.6421 30.1751 36.0583 30.5935C36.4349 30.9722 36.6141 31.4153 36.4467 31.9453C36.377 32.1598 36.466 32.2929 36.6098 32.4356C37.4573 33.2745 38.3038 34.1156 39.1396 34.9664C39.9453 35.785 40.1759 36.7763 39.8702 37.8631C39.5569 38.9724 38.7973 39.6816 37.6665 39.9262C36.6624 40.1407 35.7451 39.9112 34.9962 39.1752C34.143 38.3405 33.299 37.4969 32.4643 36.6443C32.2851 36.463 32.1285 36.3944 31.8678 36.4716C31.4043 36.6079 30.9924 36.4523 30.6533 36.1219C30.192 35.6734 29.735 35.2207 29.2887 34.7572C29.1192 34.5802 28.9786 34.5319 28.7319 34.6328C23.0619 36.9426 16.8576 34.4182 14.4201 28.8147C14.2796 28.4929 14.0983 28.3931 13.7592 28.3942C9.897 28.4063 6.03476 28.4085 2.17251 28.4006C0.774595 28.3995 0.0171655 27.641 0.0171655 26.2367C0.0160927 18.2193 0.0332582 10.2019 0 2.18453C0 0.894972 0.94625 0.000218309 2.17359 0.000218309C7.05396 0.0431321 11.9343 0.0206024 16.8147 0.0206024ZM32.1671 16.6293C32.1826 16.5643 32.1937 16.4984 32.2004 16.4319C32.2004 12.8121 32.2025 9.19165 32.2068 5.57043C32.2068 5.2239 32.0169 5.2239 31.768 5.2239C21.7784 5.2239 11.7884 5.2239 1.79809 5.2239C1.47624 5.2239 1.35393 5.30651 1.35393 5.65304C1.36251 12.505 1.36538 19.3572 1.36251 26.2098C1.36251 26.8257 1.59961 27.0585 2.22079 27.0585C5.93498 27.0585 9.64917 27.0585 13.3634 27.067C13.7507 27.067 13.8065 26.9415 13.7324 26.5875C13.4605 25.3254 13.4358 24.0225 13.6595 22.751C14.3182 19.0733 16.3266 16.3783 19.6502 14.6714C19.7543 14.6301 19.842 14.5561 19.9001 14.4604C19.9582 14.3647 19.9835 14.2527 19.9721 14.1414C19.9592 13.1361 19.9646 12.1309 19.9721 11.1246C19.9721 10.5495 20.1995 10.3285 20.7832 10.3253C21.5599 10.3253 22.3377 10.3253 23.1155 10.3253C23.6466 10.3253 23.8805 10.5592 23.8869 11.0827C23.8944 11.6599 23.8869 12.236 23.8869 12.8121C23.8869 13.6565 23.8182 13.5095 24.6164 13.5524C25.0456 13.5749 25.1303 13.4204 25.126 13.0256C25.1078 11.1085 25.1164 9.19129 25.1196 7.27304C25.1196 6.69049 25.3428 6.46626 25.9189 6.46197C26.6559 6.46197 27.393 6.46197 28.1311 6.46197C28.8424 6.46197 29.0355 6.65723 29.0366 7.37067C29.0366 9.59682 29.0419 11.823 29.0312 14.0491C29.0312 14.371 29.087 14.5963 29.4196 14.6993C29.5318 14.7458 29.6396 14.8025 29.7414 14.8688C30.6213 15.3505 31.4364 15.9421 32.1671 16.6293ZM16.7836 3.88285H31.5417C31.6618 3.88285 31.7831 3.88285 31.9032 3.88285C32.1028 3.89143 32.2015 3.80989 32.1993 3.60069C32.1929 3.07821 32.2122 2.55466 32.1875 2.03219C32.1682 1.62236 31.929 1.40672 31.5159 1.37132C31.37 1.35844 31.2209 1.36488 31.0739 1.36488H2.48042C2.35919 1.36488 2.23796 1.36488 2.1178 1.36488C1.62 1.38848 1.38183 1.61914 1.36681 2.11587C1.35393 2.50424 1.36681 2.89261 1.36681 3.28205C1.36681 3.87963 1.36681 3.8807 1.94829 3.8807L16.7836 3.88285ZM24.522 14.8827C19.1449 14.9686 14.9211 19.0969 14.8997 24.4708C14.8782 29.8446 19.117 34.1264 24.5317 34.1146C29.8788 34.1038 34.1101 29.9154 34.1101 24.5051C34.1101 19.128 29.9013 14.9889 24.522 14.8827ZM38.6224 37.0434C38.6205 36.648 38.4713 36.2674 38.204 35.976C37.3511 35.1037 36.4875 34.2455 35.6292 33.3775C35.494 33.2402 35.3921 33.2499 35.2612 33.3775C34.639 34.0076 34.0131 34.6335 33.3837 35.255C33.2582 35.3795 33.2217 35.4814 33.3655 35.623C34.2442 36.4898 35.1003 37.3782 35.9983 38.2236C36.4778 38.6752 37.0786 38.7396 37.6848 38.4725C38.2909 38.2053 38.557 37.7097 38.6224 37.0434ZM31.6232 35.0619C31.6726 35.0296 31.7196 34.9937 31.7637 34.9546C32.8316 33.8954 33.8941 32.834 34.9512 31.7704C35.0896 31.6331 35.0756 31.5312 34.9437 31.4024C34.6357 31.1042 34.3311 30.8027 34.035 30.4926C33.8762 30.3253 33.7796 30.3671 33.6648 30.5409C32.8475 31.7885 31.7813 32.8539 30.5332 33.6704C30.354 33.7884 30.3293 33.885 30.4913 34.0416C30.8014 34.3377 31.0997 34.6467 31.4033 34.9482C31.4285 34.9837 31.462 35.0126 31.5009 35.0324C31.5397 35.0522 31.5828 35.0623 31.6264 35.0619H31.6232ZM27.6955 10.8842C27.6955 10.1064 27.6955 9.32969 27.6955 8.55295C27.6955 7.71076 27.8028 7.82877 26.9445 7.79337C26.5433 7.77728 26.4521 7.92426 26.4564 8.29975C26.4746 9.81354 26.4564 11.3284 26.465 12.8422C26.465 13.9075 26.3577 13.6329 27.2964 13.8925C27.6183 13.9805 27.703 13.8871 27.6987 13.5771C27.688 12.6791 27.6955 11.7811 27.6955 10.8842ZM22.5459 12.7081C22.5459 12.4538 22.5459 12.1995 22.5459 11.9453C22.5459 11.838 22.5459 11.6953 22.4117 11.6878C22.0923 11.6685 21.772 11.6685 21.4526 11.6878C21.3217 11.6953 21.3185 11.8359 21.3185 11.9453C21.3185 12.5203 21.3185 13.0964 21.3185 13.6715C21.3185 13.9215 21.4387 13.9697 21.6532 13.9075C22.6746 13.6157 22.5383 13.9311 22.5491 12.8282C22.5469 12.7885 22.5459 12.7488 22.5459 12.7091V12.7081Z" fill="#5940F3"/>
<path d="M9.08486 11.7714V13.6618C9.08486 14.1811 9.08486 14.1821 9.62128 14.1821C10.8672 14.1821 12.1135 14.1821 13.3601 14.1821C14.0221 14.1821 14.2313 14.3967 14.2292 15.0404C14.2259 18.024 11.6103 20.5988 8.6246 20.6857C7.206 20.7237 5.82123 20.2492 4.7241 19.3491C3.62696 18.449 2.89097 17.1836 2.651 15.785C2.14569 12.7188 4.24847 9.67725 7.32217 9.11937C7.67759 9.05052 8.03965 9.02209 8.40145 9.03461C8.83059 9.05392 9.07198 9.29102 9.07949 9.72016C9.09236 10.4036 9.07949 11.087 9.07949 11.7704L9.08486 11.7714ZM7.74058 12.6984C7.74058 11.9635 7.74058 11.3605 7.74058 10.7576C7.74058 10.5323 7.67943 10.4465 7.42945 10.5033C6.73081 10.6604 6.08032 10.9836 5.53309 11.4454C4.98586 11.9073 4.55801 12.4943 4.28579 13.1566C4.01358 13.8189 3.90501 14.5371 3.96929 15.2503C4.03358 15.9635 4.26881 16.6507 4.65508 17.2537C4.77953 17.4479 4.86964 17.4414 5.01984 17.2859C5.44898 16.8439 5.89099 16.4147 6.32442 15.9759C6.78467 15.5092 7.38869 15.1091 7.65797 14.549C7.93906 13.9718 7.70732 13.2327 7.74058 12.6984ZM8.36819 19.3329C8.53985 19.3125 8.71258 19.2889 8.88531 19.2728C9.79065 19.1816 10.6461 18.8144 11.3358 18.2208C12.0255 17.6273 12.5161 16.8361 12.7411 15.9545C12.8141 15.6594 12.8055 15.5135 12.4343 15.52C11.296 15.5382 10.1588 15.5307 9.02156 15.52C8.92148 15.515 8.82154 15.5321 8.72883 15.5701C8.63611 15.6081 8.55291 15.6661 8.48513 15.7399C7.66655 16.5681 6.8469 17.3953 6.01223 18.2074C5.79766 18.422 5.85881 18.5132 6.07767 18.6473C6.77212 19.0631 7.55949 19.2988 8.36819 19.3329Z" fill="#5940F3"/>
<path d="M7.11297 25.8246C5.88027 25.8246 4.64543 25.8246 3.41594 25.8246C2.81408 25.8246 2.59522 25.6025 2.592 24.9985C2.592 24.2217 2.58663 23.445 2.592 22.6672C2.592 22.1436 2.83017 21.9098 3.35908 21.9087C5.86239 21.9087 8.3657 21.9087 10.869 21.9087C11.4204 21.9087 11.649 22.1404 11.6522 22.6929C11.6586 23.4833 11.6586 24.2736 11.6522 25.0639C11.6522 25.5864 11.4119 25.8149 10.884 25.8235C9.63094 25.8289 8.3682 25.8246 7.11297 25.8246ZM7.08079 24.4814C7.89937 24.4814 8.71688 24.4867 9.53546 24.4814C10.413 24.4739 10.2864 24.6069 10.3176 23.6757C10.3283 23.3356 10.2038 23.2465 9.87662 23.2465C8.17402 23.2594 6.47141 23.2465 4.76773 23.2551C3.82041 23.2551 3.94808 23.0877 3.92662 24.1198C3.92662 24.4052 4.0339 24.491 4.30533 24.4878C5.23442 24.4739 6.16028 24.4814 7.08079 24.4814Z" fill="#5940F3"/>
<path d="M13.5179 12.9505C12.7132 12.9505 11.9086 12.9505 11.105 12.9505C10.5471 12.9505 10.3154 12.7219 10.3133 12.1726C10.309 10.5233 10.309 8.87436 10.3133 7.22576C10.3133 6.69792 10.5514 6.47476 11.075 6.45974C13.7453 6.4061 16.2386 8.50888 16.7192 11.2135C16.779 11.5297 16.8074 11.8509 16.804 12.1726C16.7922 12.7177 16.5669 12.9472 16.0101 12.9505C15.1851 12.9548 14.3536 12.9505 13.5179 12.9505ZM11.6608 9.74372C11.6608 10.2523 11.6672 10.7619 11.6608 11.2704C11.6608 11.5053 11.7348 11.6115 11.9826 11.6094C13.014 11.6023 14.0453 11.6023 15.0767 11.6094C15.3449 11.6094 15.3835 11.5139 15.332 11.2661C15.0016 9.67935 13.5436 8.22887 11.9794 7.93062C11.7423 7.88556 11.6575 7.93705 11.6575 8.1763C11.665 8.69877 11.6608 9.22661 11.6608 9.74372Z" fill="#5940F3"/>
<path d="M16.1099 24.5093C16.1044 22.2825 16.9838 20.1448 18.5546 18.5664C20.1253 16.988 22.2588 16.0982 24.4856 16.0928C26.7123 16.0874 28.8501 16.9668 30.4285 18.5375C32.0069 20.1083 32.8966 22.2417 32.902 24.4685C32.902 29.1622 29.1889 32.9043 24.5263 32.9054C23.4208 32.9126 22.3247 32.7005 21.3016 32.2814C20.2786 31.8623 19.3488 31.2444 18.5661 30.4636C17.7833 29.6828 17.1632 28.7545 16.7416 27.7324C16.32 26.7104 16.1053 25.6149 16.1099 24.5093ZM19.9721 19.1998C19.9156 19.2258 19.8611 19.2559 19.809 19.2899C17.7706 20.9882 16.9198 24.225 17.8382 26.7386C17.9455 27.0412 18.1343 27.0605 18.3918 27.0605C22.4686 27.0562 26.5454 27.058 30.6222 27.0659C30.9752 27.0659 31.1243 26.9414 31.2123 26.6239C31.9794 23.8345 31.3722 21.4077 29.2951 19.3714C29.235 19.3124 29.1878 19.2083 29.0419 19.2641C29.0419 19.9679 29.0634 20.6781 29.0333 21.3862C29.0173 21.7821 29.117 21.9387 29.5419 21.9173C30.0955 21.8883 30.324 22.1394 30.3272 22.6919C30.3336 23.4697 30.3272 24.2475 30.3272 25.0253C30.3272 25.5993 30.0965 25.8214 29.5151 25.8235C28.4283 25.8235 27.3425 25.8235 26.2558 25.8235C24.0028 25.8235 21.7498 25.8235 19.4968 25.8235C18.9604 25.8235 18.6976 25.6089 18.69 25.1433C18.6765 24.285 18.6765 23.4268 18.69 22.5685C18.6965 22.164 18.9454 21.9344 19.352 21.9076C19.4456 21.9007 19.5395 21.9007 19.6331 21.9076C19.8659 21.9248 19.9775 21.839 19.9742 21.5858C19.9646 20.8133 19.971 20.0344 19.971 19.2041L19.9721 19.1998ZM30.3358 28.4305H18.7222C19.9817 30.4325 22.1982 31.56 24.5253 31.5364C26.9392 31.5182 28.8789 30.4754 30.3358 28.4305ZM24.4609 24.4814C25.7215 24.4814 26.9821 24.4814 28.2427 24.4814C29.0634 24.4814 28.9507 24.5758 28.9883 23.7572C29.0076 23.3388 28.8649 23.2401 28.4637 23.2433C25.9167 23.2605 23.3687 23.2433 20.8207 23.254C19.9195 23.254 20.045 23.1146 20.0182 24.078C20.0086 24.3998 20.1255 24.491 20.4377 24.4878C21.7788 24.4739 23.1241 24.4814 24.4609 24.4814ZM25.1164 19.7212C25.1164 19.1322 25.1164 18.541 25.1164 17.9542C25.1164 17.525 25.0359 17.4596 24.5059 17.4585C23.976 17.4575 23.888 17.5208 23.8869 17.9456C23.8869 18.9755 23.8762 20.0065 23.8869 21.0375C23.8987 22.0235 23.6852 21.8958 24.7956 21.9087C25.0467 21.9087 25.1175 21.8014 25.1175 21.5686C25.1153 20.9528 25.1207 20.337 25.1207 19.7212H25.1164ZM22.5416 19.8284V18.541C22.5416 17.7021 22.548 17.7171 21.7605 18.0239C21.4237 18.1548 21.2874 18.334 21.3024 18.7063C21.3325 19.4959 21.3024 20.2866 21.3132 21.0772C21.3239 22.0085 21.1436 21.8862 22.1897 21.9033C22.4471 21.9033 22.5512 21.8186 22.5459 21.5547C22.5373 20.985 22.5459 20.4089 22.5459 19.8327L22.5416 19.8284ZM26.4607 19.8392C26.4607 20.2544 26.4553 20.6696 26.4607 21.0847C26.4746 22.0106 26.3105 21.884 27.3039 21.9065C27.6054 21.9141 27.7009 21.8068 27.6955 21.5107C27.6805 20.6942 27.6901 19.8767 27.6901 19.0592C27.6901 18.1419 27.6901 18.1516 26.819 17.8651C26.51 17.7643 26.4489 17.8651 26.4553 18.1516C26.4757 18.7181 26.465 19.2802 26.465 19.8478L26.4607 19.8392Z" fill="#5940F3"/>
</svg>
