<svg width="130" height="40" viewBox="0 0 130 40" fill="none" xmlns="http://www.w3.org/2000/svg">
<path d="M72.5593 27.6818V36.4058H70.9421L70.9087 34.8665C70.6151 35.3925 70.1837 35.8285 69.6609 36.1278C69.1381 36.4271 68.5437 36.5784 67.9414 36.5653C66.1758 36.5653 64.9963 35.5193 64.9963 33.9689C64.9963 32.3368 66.454 31.2574 68.6276 31.2574C69.3846 31.2599 70.1392 31.342 70.8791 31.5022V29.0171H65.5638V27.6818H72.5593ZM70.8902 32.641C70.2194 32.4979 69.536 32.4221 68.8501 32.4147C67.5742 32.4147 66.7433 33.0193 66.7433 33.8984C66.7433 34.7775 67.3442 35.3524 68.4087 35.3524C69.6179 35.3598 70.8754 34.3657 70.8902 32.641Z" fill="white"/>
<path d="M80.0112 27.5186L79.8962 29.0542C77.9192 29.0542 76.71 30.0334 76.71 31.5208V36.4058H75.0408V27.6818H76.6432L76.6766 28.9874C77.3294 28.023 78.4904 27.5186 80.0112 27.5186Z" fill="white"/>
<path d="M84.3398 32.5185H83.049V36.4058H81.3798V23.661H83.049V31.1276H84.3546L87.4592 27.6818H89.5697L85.7122 31.8138L89.7923 36.4058H87.6669L84.3398 32.5185Z" fill="white"/>
<path d="M98.4236 32.641H91.773C91.9362 34.2248 92.7708 35.2374 94.2915 35.2374C94.7816 35.2414 95.2655 35.1288 95.7034 34.9089C96.1413 34.6889 96.5207 34.368 96.8101 33.9726L98.0823 34.6588C97.6662 35.2665 97.1041 35.7599 96.4475 36.0937C95.791 36.4274 95.0611 36.5909 94.3249 36.569C91.7582 36.569 90.0297 34.7737 90.0297 32.0772C90.0297 29.3806 91.7099 27.5186 94.2619 27.5186C96.8138 27.5186 98.4755 29.2804 98.4755 31.9288C98.4749 32.1671 98.4575 32.4051 98.4236 32.641ZM91.773 31.4985H96.7433C96.5949 29.8294 95.6788 28.8316 94.2433 28.8316C92.8079 28.8316 91.9214 29.8554 91.773 31.5059V31.4985Z" fill="white"/>
<path d="M104.944 34.8368V36.1758C104.255 36.4564 103.515 36.5903 102.771 36.569C101.269 36.569 100.271 35.5415 100.271 34.0059V25.1298H101.936V27.6817H104.815V29.0542H101.936V33.661C101.917 33.8511 101.939 34.043 102 34.2241C102.06 34.4052 102.159 34.5714 102.289 34.7116C102.418 34.8519 102.576 34.963 102.752 35.0376C102.928 35.1123 103.118 35.1487 103.309 35.1447C103.869 35.1489 104.424 35.0444 104.944 34.8368Z" fill="white"/>
<path d="M106.454 27.6818H108.119V36.4058H106.454V27.6818Z" fill="white"/>
<path d="M118.646 31.1202V36.4466H116.981V31.2352C116.981 29.8962 116.079 29.0097 114.692 29.0097C114.392 28.9895 114.092 29.0329 113.81 29.1369C113.528 29.241 113.272 29.4033 113.057 29.6134C112.842 29.8235 112.675 30.0766 112.565 30.3561C112.454 30.6356 112.405 30.9351 112.418 31.2352V36.4466H110.753V31.1202C110.753 28.98 112.322 27.5594 114.692 27.5594C117.062 27.5594 118.646 28.98 118.646 31.1202Z" fill="white"/>
<path d="M129.685 27.6817V40H121.039V38.6276H128.016V34.8368C127.396 35.9013 126.35 36.569 124.815 36.569C122.411 36.569 120.631 34.7403 120.631 32.0104C120.631 29.2804 122.404 27.5185 124.815 27.5185C125.462 27.4851 126.105 27.6322 126.674 27.9433C127.242 28.2544 127.713 28.7173 128.034 29.2804L128.064 27.6817H129.685ZM128.016 32.0438C128.016 30.1892 126.873 28.954 125.189 28.954C123.505 28.954 122.363 30.1817 122.363 32.0289C122.363 33.8761 123.476 35.1335 125.189 35.1335C126.903 35.1335 128.016 33.8909 128.016 32.0438Z" fill="white"/>
<path d="M59.5327 27.5186C58.1936 27.5186 57.1068 27.9711 56.4206 28.7574C55.7307 27.9711 54.6402 27.5186 53.2901 27.5186C50.9199 27.5186 49.3546 28.9392 49.3546 31.0794V36.4058H51.02V31.1944C51.0058 30.8945 51.0551 30.595 51.1647 30.3155C51.2743 30.0361 51.4418 29.7829 51.6562 29.5728C51.8706 29.3626 52.127 29.2002 52.4086 29.0961C52.6901 28.992 52.9906 28.9486 53.2901 28.9689C54.681 28.9689 55.5786 29.8702 55.5786 31.1944V36.4058H57.2626V31.1944C57.2484 30.8945 57.2976 30.595 57.4073 30.3155C57.5169 30.0361 57.6844 29.7829 57.8988 29.5728C58.1132 29.3626 58.3695 29.2002 58.6511 29.0961C58.9327 28.992 59.2331 28.9486 59.5327 28.9689C60.9236 28.9689 61.8212 29.8702 61.8212 31.1944V36.4058H63.4867V31.0794C63.4867 28.9318 61.9177 27.5186 59.5327 27.5186Z" fill="white"/>
<path d="M21.5504 0.741852H26.8991V19.9666H21.5504V0.741852Z" fill="white"/>
<path d="M50.0112 10.3598C50.0112 16.1758 46.1684 20.2263 40.1187 20.2263C33.8836 20.2263 29.733 16.2797 29.733 10.3598C29.733 4.43992 33.8131 0.489624 40.1187 0.489624C43.0861 0.489624 45.6232 1.34645 47.3109 2.74853L43.8057 6.08681C43.1566 5.34497 41.9511 4.9147 40.1966 4.9147C37.2293 4.9147 35.2634 7.09942 35.2634 10.3709C35.2634 13.6424 37.2107 15.8235 40.1447 15.8235C42.3702 15.8235 43.9095 14.7107 44.3509 12.9414H40.5861V8.53117H49.9333C49.9852 9.13948 50.0112 9.73666 50.0112 10.3598Z" fill="white"/>
<path d="M52.4518 0.741852H57.8004V19.9666H52.4518V0.741852Z" fill="white"/>
<path d="M76.5764 5.16322H71.046V19.9666H65.6973V5.16322H60.1632V0.741852H76.5764V5.16322Z" fill="white"/>
<path d="M112.986 15.5527V19.9666H99.7404V0.741852H105.089V15.5527H112.986Z" fill="white"/>
<path d="M114.414 17.6558L116.387 14.0727C117.87 15.1886 119.672 15.7985 121.528 15.8123C123.294 15.8123 124.151 15.4748 124.151 14.618C124.151 13.6573 122.956 13.2938 121.087 12.8004L120.178 12.5668C116.569 11.6321 114.102 10.178 114.102 6.88057C114.102 3.06009 117.166 0.489617 121.788 0.489617C124.282 0.480253 126.717 1.252 128.75 2.69659L126.435 6.40579C125.108 5.43713 123.509 4.90916 121.866 4.89615C120.49 4.89615 119.64 5.31158 119.64 6.00891C119.64 6.91766 120.861 7.28116 122.574 7.72256L123.457 7.95623C126.625 8.7871 129.692 10.6306 129.692 14.1098C129.692 17.7967 126.521 20.2374 121.821 20.2374C119.127 20.2642 116.508 19.3513 114.414 17.6558Z" fill="white"/>
<path d="M96.0683 20.4599H90.7048C90.5746 20.459 90.45 20.4066 90.3583 20.3141C90.2666 20.2217 90.2151 20.0968 90.2151 19.9666V8.64614C90.2151 6.67285 89.0208 5.39688 87.1736 5.39688C85.3264 5.39688 84.0542 6.67285 84.0542 8.64614V19.9666C84.0542 20.0968 84.0027 20.2217 83.911 20.3141C83.8193 20.4066 83.6947 20.459 83.5646 20.4599H78.2122C78.082 20.459 77.9575 20.4066 77.8657 20.3141C77.774 20.2217 77.7226 20.0968 77.7226 19.9666V8.43843C77.7226 3.39021 81.5097 0 87.1662 0C92.8227 0 96.5616 3.39021 96.5616 8.43843V19.9666C96.5616 20.0975 96.5096 20.2229 96.4171 20.3155C96.3246 20.408 96.1991 20.4599 96.0683 20.4599ZM91.2092 19.477H95.5786V8.43843C95.5786 3.90579 92.2738 0.979229 87.1625 0.979229C82.0512 0.979229 78.7166 3.90579 78.7166 8.43843V19.477H83.0861V8.64614C83.0861 6.11647 84.7367 4.41395 87.1884 4.41395C89.5549 4.41395 91.2092 6.15356 91.2092 8.64614V19.477Z" fill="white"/>
<path d="M9.08753 0.259644H0.489609C0.361031 0.259629 0.237607 0.310193 0.145997 0.400416C0.0543863 0.490638 0.00194333 0.613276 -4.82763e-06 0.741839V5.15579C-8.50786e-06 5.28598 0.051457 5.4109 0.143172 5.50331C0.234888 5.59572 0.359416 5.64813 0.489609 5.64911H9.21735C11.3168 5.64911 12.6743 7.47404 12.6743 10.3004C12.6743 13.1269 11.2834 15.0556 9.21735 15.0556H0.489609C0.424683 15.0556 0.360404 15.0685 0.300513 15.0936C0.240621 15.1187 0.186314 15.1554 0.14075 15.2017C0.0951873 15.2479 0.0592785 15.3028 0.0351139 15.363C0.0109493 15.4233 -0.000988556 15.4878 -4.82763e-06 15.5527V19.9666C-8.50786e-06 20.0968 0.051457 20.2217 0.143172 20.3141C0.234888 20.4066 0.359416 20.459 0.489609 20.4599H9.08753C15.1261 20.4599 19.184 16.3798 19.184 10.3079C19.184 4.29896 15.1261 0.259644 9.08753 0.259644ZM0.979224 1.23887H3.43842V4.67359H0.979224V1.23887ZM0.979224 16.0423H3.43842V19.477H0.979224V16.0423ZM9.08753 19.477H4.41765V16.0423H9.21735C11.8694 16.0423 13.6684 13.7389 13.6684 10.3079C13.6684 6.93991 11.8843 4.67359 9.21735 4.67359H4.41765V1.23887H9.08753C14.6254 1.23887 18.2047 4.7997 18.2047 10.3079C18.2047 15.816 14.5401 19.477 9.08753 19.477Z" fill="white"/>
</svg>
