<svg width="40" height="40" viewBox="0 0 40 40" fill="none" xmlns="http://www.w3.org/2000/svg">
<path d="M0 21.3003C0 17.8207 0 14.3407 0 10.8603C0 9.42706 0.800943 8.63499 2.24641 8.63277C2.46814 8.62164 2.69029 8.62164 2.91202 8.63277C3.25147 8.66605 3.33689 8.52184 3.33467 8.19902C3.32802 6.44294 3.32802 4.68242 3.32802 2.92079C3.32802 2.17864 3.52548 1.97785 4.25875 1.97785H17.1116C17.8215 1.97785 18.029 2.18418 18.029 2.89194C18.029 4.63915 18.0423 6.38636 18.0212 8.13246C18.0212 8.54292 18.1499 8.65052 18.5426 8.64165C19.541 8.61613 20.5394 8.63388 21.5378 8.63277C21.743 8.63277 21.9616 8.67382 21.9682 8.34213C21.976 7.98492 21.7464 8.02707 21.5245 8.02596C21.2483 8.02596 20.9698 8.03262 20.6936 8.02596C20.2443 8.00822 19.9847 7.76971 19.9792 7.33152C19.9659 6.44405 19.9659 5.55658 19.9792 4.6691C19.9847 4.24866 20.2399 4.0035 20.657 3.98242C20.9754 3.96689 21.2949 3.97022 21.6133 3.98242C21.8484 3.98908 21.9616 3.9203 21.9749 3.65739C22.0215 2.74773 22.1358 2.649 23.0454 2.649C24.0849 2.649 25.1276 2.6013 26.1638 2.66342C27.1622 2.72221 28.043 2.37166 28.9515 2.09544C31.1258 1.43538 33.2957 0.76423 35.4678 0.0986269C36.3275 -0.165396 36.6703 0.0908616 36.6714 0.986098C36.6714 1.83252 36.6881 2.67784 36.6637 3.52316C36.6526 3.89257 36.7746 3.99684 37.1385 3.99352C38.2312 3.98353 38.9611 4.48606 39.2462 5.39683C39.3441 5.69811 39.3697 6.01823 39.3209 6.33125C39.2721 6.64426 39.1502 6.94137 38.9651 7.1985C38.78 7.45563 38.537 7.66554 38.2557 7.81123C37.9744 7.95692 37.6627 8.03428 37.3459 8.03706H37.0963C36.89 8.03706 36.6725 7.99934 36.6681 8.32992C36.6626 8.68935 36.8977 8.64276 37.1185 8.64387C37.4236 8.64387 37.7286 8.64387 38.0337 8.64387C38.5536 8.6465 39.0515 8.85444 39.4188 9.2224C39.7862 9.59037 39.9933 10.0886 39.995 10.6085C40.0017 17.7497 40.0017 24.8898 39.995 32.0287C39.995 33.1525 39.1075 33.99 37.9483 33.9912C33.0672 33.9956 28.1861 33.9956 23.305 33.9912C22.6915 33.9912 22.6915 33.9912 22.6915 34.598C22.6915 34.9175 22.706 35.2369 22.6915 35.5553C22.6738 35.8526 22.8025 35.9358 23.0831 35.9336C24.2202 35.9225 25.3573 35.927 26.4943 35.9336C27.1233 35.9336 27.3496 36.1555 27.353 36.7823C27.353 37.5865 27.353 38.3908 27.353 39.1951C27.353 39.7364 27.1045 39.9816 26.5598 39.9827C22.192 39.9827 17.8249 39.9827 13.4585 39.9827C12.8916 39.9827 12.6587 39.7398 12.6553 39.1629C12.6553 38.373 12.6553 37.5832 12.6553 36.7922C12.6553 36.1621 12.8772 35.9358 13.504 35.9336C14.6266 35.9336 15.7504 35.9214 16.8731 35.9392C17.2214 35.9392 17.3434 35.8282 17.3168 35.4854C17.289 35.1532 17.289 34.8193 17.3168 34.487C17.3589 34.0655 17.1737 33.9823 16.791 33.9856C14.7254 34.0023 12.6598 33.9934 10.5942 33.9934C7.79348 33.9934 4.99277 33.9934 2.19205 33.9934C0.813146 33.9823 0 33.1647 0 31.7814C0 28.2869 0 24.7933 0 21.3003ZM19.9615 29.9321H38.0126C38.605 29.9321 38.605 29.9321 38.605 29.3464V11.1288C38.6111 10.9629 38.6045 10.7967 38.585 10.6318C38.5451 10.3689 38.4153 10.1515 38.1413 10.0838C37.692 9.97286 37.1873 9.9074 36.7968 10.0838C36.4828 10.2269 36.7202 10.7161 36.6692 11.0478C36.6526 11.1587 36.6692 11.2697 36.6603 11.3806C36.6557 11.4711 36.6327 11.5597 36.5926 11.641C36.5526 11.7223 36.4963 11.7945 36.4274 11.8533C36.3584 11.9121 36.2782 11.9562 36.1916 11.9829C36.105 12.0096 36.0138 12.0183 35.9237 12.0085C35.7583 11.9907 35.5956 11.9534 35.4389 11.8976C32.7632 11.0766 30.0879 10.255 27.4129 9.43261C26.7073 9.2174 26.6064 9.29838 26.511 10.0194C26.3712 11.0755 26.2233 12.1309 26.0673 13.1855C25.9663 13.8511 25.7622 14.0075 25.0999 14.0097H23.5579C22.8291 14.0097 22.6327 13.8056 22.6316 13.0613C22.6316 12.1738 22.6228 11.2863 22.6316 10.3988C22.6316 10.1115 22.5384 10.0095 22.2478 10.0117C20.9721 10.0228 19.6963 10.0228 18.4206 10.0117C18.1033 10.0117 18.0168 10.1293 18.0223 10.4277C18.0356 11.3429 18.0301 12.2581 18.0223 13.1722C18.0223 13.7723 17.7883 14.0086 17.1925 14.0086C12.8395 14.0086 8.48645 14.0086 4.1334 14.0086C3.56209 14.0086 3.32802 13.7679 3.32358 13.1955C3.31803 12.4189 3.32358 11.6424 3.32358 10.8659C3.31471 9.88411 3.45781 10.025 2.45497 10.0172C1.5675 10.0172 1.38667 10.2014 1.38667 11.0922V29.3574C1.38667 29.931 1.38667 29.9321 1.94911 29.9321H19.9615ZM10.643 12.6264C12.5011 12.6264 14.3593 12.6264 16.2174 12.6264C16.538 12.6264 16.6534 12.5388 16.6523 12.2026C16.6412 9.40192 16.6412 6.6012 16.6523 3.80049C16.6523 3.44883 16.5347 3.35676 16.1964 3.35676C12.5222 3.36563 8.84772 3.36563 5.17285 3.35676C4.84005 3.35676 4.7158 3.44883 4.71691 3.80049C4.72874 6.58863 4.72874 9.37603 4.71691 12.1627C4.71691 12.5354 4.83561 12.6319 5.19504 12.6297C7.00437 12.6175 8.82147 12.6264 10.6375 12.6264H10.643ZM20.0214 31.3221H2.09C1.96575 31.3221 1.84039 31.3287 1.71615 31.3221C1.49428 31.3099 1.39666 31.3964 1.38335 31.6338C1.35228 32.3127 1.62518 32.5956 2.36289 32.5956H37.6343C37.7864 32.6012 37.9385 32.587 38.0869 32.5535C38.4796 32.4503 38.6649 32.0897 38.6028 31.5894C38.5484 31.1457 38.199 31.3332 37.9838 31.3332C31.9948 31.3206 26.0055 31.3169 20.0158 31.3221H20.0214ZM35.277 6.00697C35.277 4.69018 35.2703 3.37451 35.2825 2.05883C35.2825 1.74932 35.2437 1.63839 34.8932 1.74821C32.7544 2.42195 30.6096 3.08127 28.459 3.72617C28.1262 3.82601 27.992 3.968 28.0008 4.33187C28.0252 5.4412 28.023 6.55054 28.0008 7.65988C27.9942 8.01154 28.104 8.1724 28.4446 8.27557C30.5893 8.92046 32.734 9.57978 34.8787 10.2535C35.2016 10.3545 35.2859 10.2979 35.2814 9.95843C35.2681 8.64165 35.277 7.32264 35.277 6.00697ZM19.9958 38.5849C21.8396 38.5849 23.6833 38.5794 25.5281 38.5905C25.8454 38.5905 26.0051 38.5095 25.9608 38.1689C25.9541 38.0722 25.9541 37.975 25.9608 37.8783C25.9608 37.3136 25.9608 37.3125 25.3883 37.3125C21.8666 37.3125 18.3448 37.3125 14.823 37.3125C13.9355 37.3125 14.0631 37.1949 14.0309 38.1223C14.0187 38.4929 14.1419 38.5949 14.5068 38.5916C16.335 38.5761 18.1654 38.5849 19.9958 38.5849ZM26.6241 6.02804C26.6241 5.50111 26.6119 4.97417 26.6241 4.44724C26.633 4.15326 26.5531 4.02014 26.2303 4.0268C25.3983 4.04455 24.5663 4.04122 23.7343 4.0268C23.4481 4.0268 23.3427 4.11887 23.346 4.41063C23.3579 5.4645 23.3579 6.51837 23.346 7.57225C23.346 7.84625 23.4148 7.97604 23.7188 7.9705C24.5641 7.95608 25.4105 7.9594 26.2558 7.9705C26.5232 7.9705 26.6297 7.88064 26.6219 7.60885C26.6142 7.08192 26.6241 6.55498 26.6241 6.02804ZM19.9981 35.9225C20.3175 35.9225 20.637 35.9136 20.9554 35.9225C21.2017 35.9314 21.3093 35.8393 21.3015 35.5842C21.2904 35.1549 21.2927 34.7244 21.3015 34.2951C21.3015 34.0599 21.1995 33.9778 20.9687 33.9801C20.3164 33.9875 19.6649 33.9875 19.0141 33.9801C18.7922 33.9801 18.6813 34.0633 18.689 34.2973C18.6968 34.7266 18.7001 35.1571 18.689 35.5864C18.6813 35.8426 18.7933 35.9314 19.0374 35.9192C19.3602 35.9136 19.6797 35.9225 19.9981 35.9225ZM24.0205 10.9624C24.0205 11.3906 24.0205 11.8188 24.0205 12.2481C24.0205 12.4578 24.0283 12.6331 24.3167 12.6319C24.5508 12.6319 24.7072 12.6031 24.7427 12.318C24.8348 11.5781 24.9335 10.8392 25.0633 10.0993C25.2086 9.27841 25.1942 9.35828 24.3411 9.35163C24.1115 9.35163 24.0161 9.44037 24.0205 9.67111C24.0272 10.1026 24.0216 10.5275 24.0205 10.9602V10.9624ZM37.0342 5.36355C36.7014 5.27369 36.6038 5.51109 36.677 5.80729C36.7502 6.10348 36.3619 6.6282 37.0608 6.63042C37.5822 6.63042 37.9205 6.38192 37.9183 5.99144C37.9161 5.60095 37.5944 5.37132 37.0342 5.36355ZM21.9649 6.04136C21.9649 5.89603 21.9583 5.78621 21.9649 5.67638C21.9838 5.40792 21.8251 5.30919 21.6077 5.37354C21.0952 5.5233 21.4457 5.9515 21.367 6.24326C21.3171 6.42519 21.3359 6.63596 21.6332 6.63707C22.1646 6.64484 21.8839 6.23105 21.9649 6.04136Z" fill="#5940F3"/>
<path d="M12.0119 16.6199H20.4118C21.1562 16.6199 21.3592 16.8174 21.3592 17.5462C21.3592 20.9415 21.3592 24.3372 21.3592 27.7333C21.3592 28.4466 21.1529 28.6573 20.4507 28.6573H3.56873C2.87983 28.6573 2.66351 28.4466 2.66351 27.7699C2.66351 24.3464 2.66351 20.923 2.66351 17.4996C2.66351 16.8273 2.88538 16.6177 3.57095 16.6177L12.0119 16.6199ZM11.9964 27.2696C14.4913 27.2696 16.9884 27.2618 19.4822 27.2773C19.8649 27.2773 19.9781 27.1664 19.9759 26.7848C19.9603 24.2067 19.9692 21.6286 19.9659 19.0493C19.9659 18.9295 20.0258 18.7654 19.9193 18.6966C19.7795 18.6078 19.6686 18.7698 19.5588 18.8375C17.2902 20.2275 15.0105 21.6108 12.7629 23.0263C12.216 23.3713 11.7867 23.3591 11.2454 23.0163C8.9934 21.5986 6.71815 20.2186 4.45066 18.8264C4.34749 18.7631 4.24099 18.6245 4.12451 18.6844C3.98252 18.7576 4.05573 18.934 4.05573 19.0638C4.05573 21.6286 4.05573 24.1922 4.04464 26.757C4.04464 27.1497 4.14226 27.2818 4.55272 27.2784C7.0332 27.2607 9.51479 27.2696 11.9964 27.2696ZM18.1299 18.0398H5.89613C7.92511 19.2912 9.87311 20.4859 11.8156 21.6851C11.8789 21.7275 11.9542 21.7486 12.0303 21.7454C12.1065 21.7422 12.1797 21.7149 12.2393 21.6674C12.5721 21.4588 12.9049 21.258 13.23 21.055L18.1299 18.0398Z" fill="#5940F3"/>
<path d="M29.3398 15.2887C31.2671 15.2887 33.1936 15.2887 35.1194 15.2887C35.7762 15.2887 35.9958 15.5106 36.0003 16.1562C36.0003 16.641 36.0091 17.1269 36.0003 17.6117C35.9947 17.8624 36.0946 17.9445 36.343 17.9545C37.2128 17.99 37.3337 18.1264 37.3337 19.0017C37.3337 21.4681 37.3337 23.9349 37.3337 26.4021C37.3337 27.1154 37.1274 27.3262 36.4251 27.3262H25.5303C24.8447 27.3262 24.6318 27.1132 24.6284 26.4387C24.6284 25.9672 24.6173 25.4958 24.6284 25.0243C24.6362 24.7536 24.5308 24.6494 24.2623 24.6627C23.9728 24.6771 23.6811 24.6715 23.3893 24.6627C22.8912 24.6494 22.6338 24.412 22.6327 23.925C22.6276 21.2914 22.6276 18.6582 22.6327 16.0253C22.6327 15.5239 22.8968 15.291 23.4337 15.2899C25.4039 15.2865 27.3718 15.2899 29.3398 15.2887ZM30.9805 19.3412C29.4685 19.3412 27.9576 19.3489 26.4455 19.3412C26.1249 19.3412 26.0084 19.4288 26.0107 19.7649C26.024 21.6789 26.024 23.5925 26.0107 25.5058C26.0107 25.8574 26.1283 25.9495 26.4666 25.9495C29.4751 25.9384 32.484 25.9384 35.4933 25.9495C35.8316 25.9495 35.9526 25.8563 35.9492 25.5058C35.9352 23.6058 35.9352 21.7059 35.9492 19.806C35.9492 19.4332 35.8305 19.3356 35.4711 19.3389C33.9757 19.3511 32.4781 19.3412 30.9805 19.3412ZM29.7791 17.9512C31.1236 17.9512 32.4681 17.9512 33.8126 17.9512C34.7112 17.9512 34.5892 18.0687 34.6202 17.1569C34.6358 16.7586 34.4882 16.6677 34.1177 16.6721C32.6756 16.691 31.2334 16.6799 29.7913 16.6799C28.003 16.6799 26.2148 16.6799 24.4265 16.6799C24.2047 16.6799 24.015 16.6799 24.0161 16.9938C24.0227 18.9906 24.0227 20.9874 24.0161 22.9842C24.0161 23.195 24.1026 23.2749 24.3145 23.2838C24.6362 23.2948 24.6251 23.0907 24.6251 22.8711C24.6251 21.5266 24.6251 20.182 24.6251 18.8375C24.6251 18.1797 24.847 17.9578 25.4926 17.9567C26.9237 17.9489 28.3514 17.9512 29.7791 17.9512Z" fill="#5940F3"/>
<path d="M9.36948 5.31361C9.54975 5.32254 9.72486 5.37671 9.87867 5.47113L13.443 7.25162C13.7658 7.41248 14.0431 7.60217 14.0343 8.02039C14.0254 8.41754 13.7536 8.59614 13.4463 8.74923C12.2582 9.34273 11.0723 9.94066 9.882 10.5242C9.12654 10.8969 8.66173 10.6096 8.65396 9.78424C8.65396 8.55288 8.65396 7.32151 8.65396 6.09014C8.6584 5.58872 8.9324 5.3014 9.36948 5.31361ZM10.044 7.97602C10.044 8.15573 10.044 8.33656 10.044 8.51627C10.034 8.77253 10.1471 8.79804 10.3479 8.69487C10.7044 8.51146 11.0638 8.33212 11.4262 8.15684C11.6636 8.04591 11.6481 7.94163 11.4262 7.83402C11.2043 7.72642 11.0058 7.62436 10.795 7.51897C10.0429 7.14623 10.0429 7.14623 10.044 7.97602Z" fill="#5940F3"/>
<path d="M32.3261 20.6148C32.9762 20.6148 33.6274 20.6226 34.2786 20.6148C34.557 20.6093 34.6779 20.7002 34.6735 20.9942C34.6513 22.2145 34.8077 21.9926 33.7084 22.0037C32.609 22.0148 31.4897 22.0037 30.3859 22.0115C30.0709 22.0115 29.9422 21.9238 29.9422 21.5877C29.971 20.4329 29.8079 20.6381 30.9084 20.6181C31.3843 20.607 31.8558 20.6137 32.3261 20.6148Z" fill="#5940F3"/>
<path d="M33.0184 23.2784C33.4621 23.2784 33.9058 23.2784 34.3496 23.2784C34.5714 23.2784 34.6735 23.3715 34.6713 23.6001C34.6613 24.9157 34.8155 24.6417 33.6851 24.665C33.0073 24.6794 32.3284 24.665 31.6505 24.6706C31.3854 24.6706 31.28 24.573 31.2845 24.3056C31.3022 23.062 31.1436 23.3072 32.2729 23.2795C32.5225 23.2739 32.771 23.2795 33.0206 23.2795L33.0184 23.2784Z" fill="#5940F3"/>
<path d="M28.6498 24.6638C28.3048 24.6638 27.9587 24.6583 27.6126 24.6638C27.3907 24.6694 27.2886 24.5718 27.2908 24.3432C27.3008 23.0276 27.1466 23.3049 28.2771 23.2772C28.733 23.2661 29.19 23.2849 29.6471 23.2772C29.9122 23.2705 30.0165 23.3759 30.0132 23.6421C29.9943 24.8857 30.1529 24.6405 29.0236 24.6694C28.8994 24.6694 28.7751 24.6694 28.6498 24.6694V24.6638Z" fill="#5940F3"/>
<path d="M27.9831 22.0035C27.2897 22.0035 27.2897 22.0035 27.2897 21.3069C27.2897 20.6102 27.2897 20.6135 27.9864 20.6135C28.6831 20.6135 28.6808 20.6135 28.6797 21.3512C28.6786 22.0035 28.6786 22.0035 27.9831 22.0035Z" fill="#5940F3"/>
</svg>
