<svg width="40" height="38" viewBox="0 0 40 38" fill="none" xmlns="http://www.w3.org/2000/svg">
<path d="M0 31.8574C0.278713 30.324 0.562317 28.7905 0.83614 27.2562C1.32511 24.4925 1.81408 21.7269 2.31088 18.9642C2.49571 17.9325 3.19102 17.4699 4.23449 17.6547C5.11464 17.8122 6.00261 17.9549 6.88276 18.128C7.16636 18.1838 7.22699 18.128 7.17614 17.8444C6.99913 16.8861 6.83679 15.9247 6.67837 14.9634C6.60209 14.5018 6.78985 14.1918 7.15951 14.1243C7.52918 14.0569 7.82451 14.3014 7.90568 14.7483C8.0954 15.7966 8.28708 16.845 8.45431 17.8972C8.51299 18.265 8.63816 18.44 9.04107 18.5104C13.4858 19.2742 17.9257 20.0653 22.3675 20.8487C22.8447 20.9328 22.8447 20.9338 22.8565 20.4497C22.8771 19.49 23.2538 18.5723 23.9133 17.8749C24.5728 17.1774 25.468 16.7501 26.425 16.6758C26.8522 16.6387 27.2812 16.624 27.71 16.6318C27.9887 16.6386 28.0709 16.5536 28.019 16.2651C27.6875 14.4236 27.3746 12.5782 27.0489 10.7348C26.5925 8.16282 26.1362 5.59083 25.6798 3.01884C25.448 1.726 24.5063 1.0698 23.2261 1.29668C19.4382 1.96494 15.6503 2.63451 11.8624 3.30538C11.6045 3.34617 11.3571 3.43686 11.1339 3.57235C10.7427 3.81782 10.5178 4.14347 10.552 4.63636C10.5843 5.10186 10.6273 5.57322 10.4982 6.03383C10.1638 7.22008 9.40193 7.98972 8.22156 8.33493C7.2309 8.62832 6.91405 9.1388 7.10084 10.1617C7.19863 10.7123 7.29643 11.2629 7.38346 11.8145C7.44507 12.2223 7.25046 12.5176 6.90427 12.5851C6.53656 12.6565 6.23242 12.4452 6.15712 12.0208C5.93415 10.7573 5.65446 9.49575 5.51168 8.21465C5.22417 5.63777 6.96979 3.07752 9.50657 2.48684C11.1749 2.09566 12.8766 1.84922 14.5655 1.54899C17.3301 1.06002 20.0977 0.588654 22.8594 0.0820797C24.2667 -0.176097 25.4353 0.159337 26.3262 1.30842C26.7721 1.88443 26.8963 2.57974 27.0176 3.27506C27.7054 7.1927 28.3926 11.11 29.0791 15.027C29.0967 15.159 29.1445 15.2852 29.219 15.3957C29.3872 14.4549 29.5554 13.5138 29.7236 12.5724C30.2184 9.77935 30.6976 6.99026 31.2061 4.20508C31.521 2.47999 32.7708 1.46685 34.5243 1.45902C35.9045 1.45511 37.284 1.45511 38.6629 1.45902C39.5089 1.46685 40.0956 2.00863 39.9871 2.83596C39.8345 4.0535 39.7573 5.31114 39.0199 6.3722C38.1926 7.56334 37.0513 8.19215 35.5971 8.23029C34.5526 8.2567 34.5527 8.25572 34.3717 9.27473C33.6761 13.2041 32.9801 17.1332 32.2838 21.0619C32.2311 21.4087 32.1283 21.746 31.9787 22.0633C31.8731 22.2755 31.8897 22.4017 32.144 22.5073C34.8568 23.629 36.4694 25.6484 36.9017 28.5461C37.1735 30.2903 36.7869 32.0732 35.8171 33.5482C35.6802 33.7614 35.5159 33.9472 35.2441 33.9776C35.1466 33.9859 35.0485 33.9706 34.9583 33.9327C34.868 33.8949 34.7883 33.8358 34.7259 33.7604C34.6635 33.6851 34.6203 33.5957 34.6 33.5C34.5797 33.4043 34.5829 33.305 34.6094 33.2108C34.6913 32.9918 34.7948 32.7815 34.9184 32.583C35.3743 31.7651 35.6415 30.8555 35.7003 29.921C35.759 28.9865 35.608 28.0506 35.2581 27.182C34.9083 26.3134 34.3685 25.5341 33.6784 24.9012C32.9882 24.2683 32.1652 23.7979 31.2697 23.5243C31.1788 23.4911 31.0808 23.4827 30.9856 23.4999C30.8904 23.5171 30.8014 23.5593 30.7279 23.6221C30.0316 24.1619 29.2248 24.3849 28.3574 24.382C27.6181 24.382 26.8748 24.4475 26.1375 24.3302C25.9419 24.2989 25.8157 24.4162 25.6837 24.5179C24.0994 25.7491 23.232 27.3539 23.1948 29.3734C23.1371 32.5126 25.2201 35.1041 28.2987 35.6987C29.704 35.9747 31.1616 35.7451 32.4139 35.0504C32.5625 34.9711 32.7073 34.8861 32.8618 34.8117C33.2461 34.6249 33.5728 34.6944 33.7498 34.9946C33.9365 35.3115 33.8397 35.6498 33.4759 35.8953C32.8692 36.3023 32.198 36.6039 31.4907 36.7872C29.1339 37.4013 26.9606 37.0023 24.9708 35.5902C24.8779 35.5227 24.782 35.4601 24.6696 35.3829C24.5287 35.6899 24.5229 36.0029 24.4652 36.3031C24.2764 37.2947 23.5938 37.7808 22.6071 37.6067L1.7603 33.9287C1.63219 33.9062 1.50407 33.8856 1.37596 33.8661C0.717809 33.7683 0.249375 33.4221 0.00684559 32.7903L0 31.8574ZM22.7753 26.021C23.1958 25.2326 23.7527 24.5251 24.4202 23.9312C24.5933 23.7776 24.5297 23.6769 24.3742 23.5664C24.0395 23.3367 23.7594 23.0362 23.5537 22.6862C23.3728 22.3625 23.1185 22.255 22.7802 22.1973C20.7813 21.856 18.7853 21.501 16.7883 21.1489C12.5258 20.3978 8.26394 19.6445 4.00272 18.8889C3.68489 18.8322 3.5822 18.9466 3.53233 19.2302C2.78844 23.4549 2.04227 27.679 1.29382 31.9024C1.27524 32.008 1.20385 32.1517 1.33391 32.2192C1.43171 32.272 1.51972 32.1537 1.60187 32.096C2.70108 31.3293 3.79898 30.5609 4.89558 29.791C6.00456 29.0145 7.10768 28.2312 8.22058 27.4635C9.33348 26.6958 10.4943 26.8953 11.3011 27.9789C11.4759 28.2052 11.6391 28.4402 11.7901 28.683C11.9456 28.9441 12.0952 28.9764 12.3475 28.7915C12.9 28.3808 13.4712 27.9925 14.0374 27.5994C15.5043 26.5824 16.9468 25.5379 18.4381 24.5629C19.4434 23.9057 20.7363 24.0368 21.6947 24.7634C22.1318 25.092 22.4105 25.5487 22.7753 26.021ZM19.95 25.399C19.5596 25.4032 19.18 25.5282 18.8635 25.757C16.9145 27.1202 14.9684 28.4893 13.0164 29.8477C12.8062 29.9944 12.7866 30.1029 12.9343 30.3122C14.0374 31.8724 15.134 33.4371 16.2241 35.0063C16.2724 35.0821 16.3368 35.1463 16.4126 35.1945C16.4885 35.2426 16.574 35.2736 16.6632 35.2851C17.6108 35.4425 18.5555 35.6185 19.4992 35.7858C20.5603 35.9745 21.6223 36.1593 22.6824 36.35C23.008 36.4087 23.2027 36.3266 23.2486 35.9589C23.3092 35.4826 23.3914 35.0083 23.496 34.5399C23.5498 34.2964 23.4823 34.1242 23.3454 33.9316C22.2228 32.3522 21.6575 30.588 22.0125 28.6742C22.1983 27.6718 22.0047 26.9139 21.3534 26.2088C21.2301 26.0748 21.1196 25.9281 20.9857 25.8068C20.6979 25.5553 20.332 25.4112 19.95 25.399ZM28.0317 17.9031C27.5633 17.9031 27.0949 17.8855 26.6274 17.9031C25.183 17.9667 24.1297 19.106 24.1425 20.5739C24.1542 21.943 25.2505 23.0461 26.6558 23.0891C27.2142 23.1067 27.7745 23.0755 28.3329 23.1009C29.7089 23.1635 30.8384 22.166 31.0624 20.7812C31.4174 18.5896 31.8291 16.4069 32.2154 14.2202C32.5449 12.3523 32.8667 10.4844 33.207 8.61951C33.2608 8.32026 33.1884 8.20584 32.8843 8.22051C32.6114 8.2342 32.3376 8.23029 32.0648 8.22051C31.8428 8.21367 31.7469 8.30364 31.7098 8.53052C31.5709 9.37546 31.4095 10.2175 31.2609 11.0614C30.9108 13.0574 30.5666 15.0534 30.2125 17.0484C30.0854 17.7662 29.925 17.8924 29.2023 17.8933C28.8121 17.9041 28.4219 17.9031 28.0317 17.9031ZM14.5899 34.9125C14.4784 34.7169 14.4393 34.6396 14.3885 34.5672C13.0604 32.67 11.7317 30.7738 10.4024 28.8786C9.89091 28.1519 9.50266 28.0962 8.77116 28.6096C7.54678 29.4683 6.32109 30.3259 5.0941 31.1826L2.75291 32.8304L14.5899 34.9125ZM36.4244 2.68243C35.8005 2.68243 35.1766 2.67265 34.5527 2.68243C33.4456 2.7059 32.6838 3.28288 32.4677 4.31168C32.2985 5.09403 32.187 5.89595 32.0403 6.68808C31.9963 6.92865 32.0677 7.00884 32.3171 7.00591C33.3703 6.99417 34.4236 7.02058 35.4758 6.9932C36.5281 6.96581 37.4151 6.55214 38.0048 5.6319C38.5446 4.79087 38.5544 3.80413 38.7206 2.86335C38.7607 2.6394 38.5436 2.68536 38.4136 2.68438C37.7486 2.67949 37.0875 2.68243 36.4244 2.68243ZM6.77909 7.58778C7.18983 7.26995 7.6788 7.22595 8.12083 7.04992C8.51796 6.89314 8.85172 6.60883 9.06964 6.24168C9.28755 5.87453 9.37727 5.44536 9.32468 5.02166C9.28849 4.72828 9.2484 4.43001 9.32468 4.13076C9.38335 3.89899 9.27871 3.89801 9.09486 3.9694C7.82354 4.46033 6.73215 6.13554 6.77909 7.58778Z" fill="#5940F3"/>
<path d="M26.1316 29.5523C26.1316 28.8629 26.1218 28.1734 26.1316 27.484C26.156 26.1804 27.4186 25.3012 28.6205 25.8136C30.091 26.4433 31.5238 27.1578 32.9117 27.9534C34.1977 28.6888 34.2035 30.3806 32.9117 31.1102C31.521 31.8925 30.0815 32.6064 28.6214 33.2528C27.4107 33.7878 26.1472 32.8744 26.1287 31.5424C26.1238 30.8784 26.1316 30.2183 26.1316 29.5523ZM27.3589 29.5406C27.3589 30.1371 27.3521 30.7346 27.3589 31.3322C27.3687 32.0529 27.7638 32.3101 28.3985 31.9981C29.6453 31.385 30.8844 30.7571 32.1274 30.1401C32.3855 30.011 32.5997 29.8408 32.5997 29.5298C32.5997 29.2188 32.3748 29.0536 32.1195 28.9254C30.8883 28.3113 29.66 27.6913 28.4258 27.082C27.7687 26.7573 27.3706 27.0097 27.3599 27.7509C27.3521 28.3455 27.3589 28.947 27.3589 29.5406Z" fill="#5940F3"/>
<path d="M23.1322 13.1963C23.4863 13.1806 23.763 13.384 23.8168 13.6999C23.8765 14.0383 23.6623 14.3512 23.2672 14.4275C22.2893 14.6172 21.2996 14.7893 20.3138 14.9624C18.2797 15.3204 16.2449 15.676 14.2095 16.0294C13.7587 16.1086 13.4359 15.9316 13.3528 15.5707C13.2736 15.2216 13.521 14.8783 13.9533 14.8011C16.9471 14.2691 19.9415 13.742 22.9367 13.2197C23.0022 13.209 23.0677 13.2021 23.1322 13.1963Z" fill="#5940F3"/>
<path d="M22.5435 10.4883C23.0325 10.4756 23.3063 10.6839 23.3474 11.0272C23.3845 11.345 23.1772 11.6306 22.7821 11.7049C21.3661 11.9729 19.9461 12.2232 18.5261 12.4736C16.9536 12.7513 15.3801 13.0261 13.8056 13.298C13.7675 13.3048 13.7303 13.3175 13.6912 13.3234C13.2765 13.385 12.9568 13.1943 12.8766 12.8403C12.8003 12.5019 13.0301 12.1724 13.4447 12.0873C14.0677 11.9601 14.6965 11.8594 15.3234 11.7499L22.2316 10.5402C22.3587 10.5177 22.4868 10.4971 22.5435 10.4883Z" fill="#5940F3"/>
<path d="M21.944 7.64154C22.433 7.62883 22.7068 7.83713 22.7479 8.18039C22.7851 8.49822 22.5787 8.78378 22.1827 8.8581C20.7666 9.12606 19.3466 9.37641 17.9276 9.62676C16.3545 9.9045 14.7809 10.1793 13.2071 10.4512C13.168 10.458 13.1308 10.4707 13.0927 10.4766C12.678 10.5382 12.3573 10.3475 12.2771 9.99349C12.2018 9.65512 12.4306 9.32556 12.8453 9.24048C13.4692 9.11334 14.098 9.01262 14.7249 8.90309L21.6321 7.69337C21.7602 7.67088 21.8883 7.65034 21.944 7.64154Z" fill="#5940F3"/>
<path d="M10.7143 23.321C10.7006 24.916 9.34521 26.2548 7.75801 26.2489C6.15028 26.2391 4.79974 24.8622 4.82419 23.2584C4.84386 22.485 5.16702 21.7503 5.72385 21.2132C6.28069 20.6761 7.02648 20.3796 7.80009 20.3879C8.57371 20.3961 9.31303 20.7083 9.85833 21.2572C10.4036 21.806 10.7111 22.5473 10.7143 23.321ZM9.43616 23.3102C9.44303 23.0889 9.40463 22.8685 9.32332 22.6625C9.24201 22.4566 9.1195 22.2694 8.96329 22.1125C8.80709 21.9555 8.62049 21.8321 8.41492 21.7499C8.20934 21.6676 7.98914 21.6282 7.76779 21.634C7.55013 21.6289 7.33367 21.6676 7.13125 21.7478C6.92884 21.828 6.74462 21.948 6.58953 22.1008C6.43445 22.2536 6.31166 22.4361 6.22847 22.6373C6.14529 22.8385 6.1034 23.0543 6.10529 23.2721C6.09356 24.25 6.80745 24.9698 7.79126 24.9688C8.00906 24.971 8.2251 24.9296 8.42659 24.8469C8.62808 24.7641 8.81092 24.6418 8.9643 24.4872C9.11767 24.3325 9.23846 24.1487 9.31951 23.9465C9.40056 23.7443 9.44023 23.528 9.43616 23.3102Z" fill="#5940F3"/>
</svg>
