<svg width="18" height="19" viewBox="0 0 18 19" fill="none" xmlns="http://www.w3.org/2000/svg">
<path d="M17.487 14.6399L13.422 10.9439C13.023 10.5809 12.407 10.5999 12.031 10.9869L9.63798 13.4479C9.06198 13.3379 7.90398 12.9769 6.71198 11.7879C5.51998 10.5949 5.15898 9.43388 5.05198 8.86188L7.51098 6.46788C7.89898 6.09188 7.91698 5.47688 7.55398 5.07688L3.85898 1.01288C3.49598 0.611877 2.87898 0.573877 2.46798 0.925877L0.297977 2.78688C0.124977 2.96088 0.0219768 3.19088 0.00797679 3.43588C-0.00702321 3.68588 -0.293023 9.60788 4.29898 14.2019C8.30498 18.2069 13.323 18.4999 14.705 18.4999C14.907 18.4999 15.031 18.4939 15.064 18.4919C15.309 18.4779 15.539 18.3749 15.712 18.2009L17.572 16.0299C17.926 15.6189 17.887 15.0029 17.487 14.6399Z" fill="white"/>
</svg>
